<svg xmlns="http://www.w3.org/2000/svg">
  <symbol id="close-eye" viewBox="0 0 16 16" fill="none">
    <path d="M0.666504 7.99984C0.666504 7.99984 3.33317 2.6665 7.99984 2.6665C12.6665 2.6665 15.3332 7.99984 15.3332 7.99984C15.3332 7.99984 12.6665 13.3332 7.99984 13.3332C3.33317 13.3332 0.666504 7.99984 0.666504 7.99984Z" stroke="#344054" stroke-linecap="round" stroke-linejoin="round"/>
    <path d="M7.99984 9.99984C9.10441 9.99984 9.99984 9.10441 9.99984 7.99984C9.99984 6.89527 9.10441 5.99984 7.99984 5.99984C6.89527 5.99984 5.99984 6.89527 5.99984 7.99984C5.99984 9.10441 6.89527 9.99984 7.99984 9.99984Z" stroke="#344054" stroke-linecap="round" stroke-linejoin="round"/>
  </symbol>

  <symbol id="open-eye" viewBox="0 0 16 16" fill="none">
    <g clip-path="url(#clip0_6112_10949)">
      <path d="M6.59984 2.8265C7.05872 2.71909 7.52855 2.6654 7.99984 2.6665C12.6665 2.6665 15.3332 7.99984 15.3332 7.99984C14.9285 8.75691 14.4459 9.46966 13.8932 10.1265M9.41317 9.41317C9.23007 9.60967 9.00927 9.76727 8.76394 9.87659C8.51861 9.9859 8.25377 10.0447 7.98523 10.0494C7.71669 10.0542 7.44995 10.0048 7.20091 9.90416C6.95188 9.80357 6.72565 9.65386 6.53573 9.46394C6.34582 9.27402 6.1961 9.0478 6.09551 8.79876C5.99492 8.54973 5.94552 8.28298 5.95026 8.01444C5.955 7.7459 6.01378 7.48107 6.12309 7.23574C6.2324 6.9904 6.39001 6.7696 6.5865 6.5865M0.666504 0.666504L15.3332 15.3332M11.9598 11.9598C10.8202 12.8285 9.43258 13.3097 7.99984 13.3332C3.33317 13.3332 0.666504 7.99984 0.666504 7.99984C1.49576 6.45443 2.64593 5.10424 4.03984 4.03984L11.9598 11.9598Z" stroke="#344054" stroke-linecap="round" stroke-linejoin="round"/>
    </g>
    <defs>
      <clipPath id="clip0_6112_10949">
        <rect width="16" height="16" fill="white"/>
      </clipPath>
    </defs>
  </symbol>

  <symbol id="plus" viewBox="0 0 16 16" fill="none" >
    <rect width="16" height="16" rx="8" fill="white"/>
    <g clipPath="url(#clip0_124_7338)">
      <path d="M7.5 4H8.5V12H7.5V4Z" fill="#C3B091"/>
      <path d="M4 8.5V7.5H12V8.5H4Z" fill="#C3B091"/>
    </g>
    <defs>
      <clipPath id="clip0_124_7338">
        <rect width="8" height="8" fill="white" transform="translate(4 4)"/>
      </clipPath>
    </defs>
  </symbol>

  <symbol id="dark-plus" viewBox="0 0 16 16" fill="none">
    <rect width="16" height="16" rx="8" fill="#C3B091"/>
    <g clip-path="url(#clip0_736_1527)">
      <path d="M7.5 4H8.5V12H7.5V4Z" fill="white"/>
      <path d="M4 8.5V7.5H12V8.5H4Z" fill="white"/>
    </g>
    <defs>
      <clipPath id="clip0_736_1527">
        <rect width="8" height="8" fill="white" transform="translate(4 4)"/>
      </clipPath>
    </defs>
  </symbol>

  <symbol id="arrow-down" viewBox="0 0 16 16" fill="none">
    <path d="M0.941406 4.70593L8.00023 11.7648L15.0591 4.70593" stroke="#303133" stroke-width="2"/>
  </symbol>

  <symbol id="circle-arrow-down" viewBox="0 0 19 18" fill="none">
    <rect x="0.5" width="18" height="18" rx="9" fill="white"/>
    <path d="M13.0293 7.35295L9.49989 10.8824L5.97047 7.35295" stroke="#838994" stroke-width="1.33333"/>
  </symbol>

  <symbol id="arrow-right" viewBox="0 0 16 16" fill="none">
    <path d="M4.4707 15.2941L11.5295 8.2353L4.4707 1.17648" stroke="#C3B091" stroke-width="2"/>
  </symbol>

  <symbol id="arrow-back" viewBox="0 0 24 24" fill="none">
    <path d="M15.5 5L8.5 12L15.5 19" stroke="black" stroke-width="1.5" stroke-linecap="round" stroke-linejoin="round"/>
  </symbol>

  <symbol id="check" viewBox="0 0 32 32" fill="none">
    <rect width="32" height="32" rx="16" fill="#309F49"/>
    <path d="M9.5 15L14.5 20L22.5 12" stroke="white" stroke-width="2"/>
  </symbol>

  <symbol id="close" viewBox="0 0 24 24" >
    <path d="M 4.7070312 3.2929688 L 3.2929688 4.7070312 L 10.585938 12 L 3.2929688 19.292969 L 4.7070312 20.707031 L 12 13.414062 L 19.292969 20.707031 L 20.707031 19.292969 L 13.414062 12 L 20.707031 4.7070312 L 19.292969 3.2929688 L 12 10.585938 L 4.7070312 3.2929688 z"/>
  </symbol>

  <symbol id="search" viewBox="0 0 20 20" fill="none">
    <path d="M19.361 18.2168L14.601 13.2662C15.8249 11.8113 16.4954 9.98069 16.4954 8.07499C16.4954 3.62251 12.8729 0 8.42045 0C3.96797 0 0.345459 3.62251 0.345459 8.07499C0.345459 12.5275 3.96797 16.15 8.42045 16.15C10.092 16.15 11.6849 15.6458 13.0467 14.6888L17.8429 19.677C18.0434 19.8852 18.313 20 18.602 20C18.8755 20 19.1349 19.8957 19.3319 19.7061C19.7504 19.3034 19.7637 18.6357 19.361 18.2168ZM8.42045 2.10652C11.7115 2.10652 14.3889 4.78391 14.3889 8.07499C14.3889 11.3661 11.7115 14.0435 8.42045 14.0435C5.12937 14.0435 2.45198 11.3661 2.45198 8.07499C2.45198 4.78391 5.12937 2.10652 8.42045 2.10652Z" fill="#838994"/>
  </symbol>

  <symbol id="edit" viewBox="0 0 16 17" fill="none" >
    <path d="M8.47565 3.60855L0.818546 11.2763C0.536393 11.5594 0.358073 11.9297 0.312537 12.327L0.00744361 15.0096C-0.0124441 15.1983 0.00762911 15.389 0.0663525 15.5694C0.125076 15.7497 0.221129 15.9156 0.348238 16.0563C0.475347 16.1969 0.630653 16.3091 0.804015 16.3856C0.977376 16.4621 1.16489 16.501 1.35432 16.5H1.51059L4.18946 16.1945C4.58467 16.1487 4.95362 15.9731 5.23868 15.6952L12.8958 8.01995L8.47565 3.60855Z" fill="#0877C8"/>
    <path d="M15.4854 2.96025L13.5432 1.01536C13.3807 0.852016 13.1876 0.722404 12.975 0.633965C12.7624 0.545526 12.5344 0.5 12.3042 0.5C12.074 0.5 11.846 0.545526 11.6334 0.633965C11.4208 0.722404 11.2277 0.852016 11.0652 1.01536L9.26443 2.81867L13.6846 7.24498L15.4854 5.44167C15.6485 5.27897 15.7779 5.08562 15.8662 4.8727C15.9545 4.65979 16 4.43151 16 4.20096C16 3.97041 15.9545 3.74213 15.8662 3.52922C15.7779 3.31631 15.6485 3.12295 15.4854 2.96025Z" fill="#0877C8"/>
  </symbol>

  <symbol id="delete" viewBox="0 0 16 17" >
    <path d="M2.50263 5.42308V11.0026C2.58469 12.0692 2.66674 13.4641 2.74879 14.4487C2.83084 15.5974 3.81546 16.5 4.96418 16.5H11.0359C12.1847 16.5 13.1693 15.5974 13.2514 14.4487C13.3334 13.4641 13.4155 12.0692 13.4975 11.0026C13.5795 9.77176 13.4975 7.22816 13.4975 5.42308H2.50263Z" fill="#CA404F"/>
    <path d="M13.7437 2.96154H11.6924L11.036 1.73077C10.6258 0.992312 9.8873 0.5 9.06674 0.5H7.09754C6.27702 0.5 5.45651 0.992312 5.12831 1.73077L4.30779 2.96154H2.25651C1.92831 2.96154 1.6001 3.28974 1.6001 3.61795C1.6001 3.94615 1.92831 4.27436 2.25651 4.27436H13.7437C14.0719 4.27436 14.4001 4.02821 14.4001 3.61795C14.4001 3.2077 14.0719 2.96154 13.7437 2.96154ZM5.70267 2.96154L6.11292 2.30513C6.27702 1.97692 6.60522 1.73077 7.01546 1.73077H8.98474C9.39498 1.73077 9.72314 1.89487 9.8873 2.30513L10.2975 2.96154H5.70267Z" fill="#CA404F"/>
  </symbol>

  <symbol id="feather" viewBox="0 0 40 41" fill="none">
    <rect y="0.5" width="40" height="40" rx="20" fill="#F3EFE9"/>
    <path d="M27.599 13.3762C27.535 13.3388 21.589 10.1765 15.9949 16.1012C15.6749 16.6185 15.4563 17.2691 15.2269 17.829C15.1949 17.3384 14.523 17.1251 14.2457 17.5517C14.1551 17.685 12.0646 20.7621 13.1738 23.5938C12.8592 24.2497 12.0433 26.1588 12.1339 27.9933C12.1393 28.2706 12.3899 28.5052 12.6672 28.4999C12.7899 28.4999 12.9125 28.4572 13.0085 28.3772L14.3897 27.2254C14.7523 26.6974 14.8003 26.0522 15.211 25.3909C16.5335 25.3802 17.8133 24.9696 17.872 24.9483C18.096 24.8789 18.24 24.6603 18.2346 24.4257C18.2293 24.2763 18.1653 24.143 18.064 24.0524C18.8586 24.1164 19.4452 23.8604 19.6905 23.6684C20.677 22.9805 22.3675 21.2847 22.4422 21.2153C22.7195 20.9487 22.5968 20.4368 22.2236 20.3301C22.2129 20.3248 22.1969 20.3194 22.1809 20.3141C22.8795 20.1968 23.3701 19.8875 23.4181 19.8555C26.7777 17.3491 27.807 14.1334 27.8496 14.0001C27.9243 13.7601 27.8176 13.4935 27.599 13.3762ZM14.4324 24.5803C14.0484 25.2736 13.7658 25.9135 13.5791 26.5055L13.2752 26.7614C13.4991 25.3376 14.1391 24.047 14.2244 23.8817C14.4537 23.5191 17.856 18.309 20.9383 17.0025C19.5358 18.245 16.1975 21.386 14.4324 24.5803Z" fill="#C3B091"/>
  </symbol>

  <symbol id="ungulate" viewBox="0 0 40 41" fill="none">
    <rect y="0.5" width="40" height="40" rx="20" fill="#F3EFE9"/>
    <path d="M11.344 20.9238C10.596 23.9404 10.9885 25.6856 13.3113 28.6138C13.4952 28.8457 13.7368 29.0273 14.0108 29.1347C15.4718 29.7076 16.1923 29.7129 16.8754 28.3737C17.1161 27.9018 17.0777 27.3287 16.7435 26.9194C16.401 26.4999 15.9574 26.0778 15.4447 25.6343C14.8596 25.1282 14.2778 24.5716 14.0491 23.8277C13.7374 22.8141 13.8318 21.6372 14.2546 19.7561C14.4378 18.9405 14.7291 18.154 15.0882 17.4006C15.5917 16.3439 16.0453 15.248 16.7044 14.283C17.281 13.4387 17.9549 12.5451 18.0966 12.1811C18.1705 11.9913 18.1974 11.8305 18.1998 11.6995C18.204 11.47 17.9569 11.4361 17.8092 11.6103C17.6839 11.758 17.5661 11.8984 17.4549 12.0335C16.2179 13.5359 15.0874 15.1422 13.8065 16.6064C12.6427 17.9367 11.9093 19.1418 11.344 20.9238Z" fill="#C3B091"/>
    <path d="M28.656 20.9238C29.404 23.9404 29.0115 25.6856 26.6887 28.6138C26.5048 28.8457 26.2632 29.0273 25.9892 29.1347C24.5282 29.7076 23.8077 29.7129 23.1246 28.3737C22.8839 27.9018 22.9223 27.3287 23.2565 26.9194C23.599 26.4999 24.0426 26.0778 24.5553 25.6343C25.1404 25.1282 25.7222 24.5716 25.9509 23.8277C26.2626 22.8141 26.1682 21.6372 25.7454 19.7561C25.5622 18.9405 25.2709 18.154 24.9118 17.4006C24.4083 16.3439 23.9547 15.248 23.2956 14.283C22.719 13.4387 22.0451 12.5451 21.9034 12.1811C21.8295 11.9913 21.8026 11.8305 21.8002 11.6995C21.796 11.47 22.0431 11.4361 22.1908 11.6103C22.3161 11.758 22.4339 11.8984 22.5451 12.0335C23.7821 13.5359 24.9126 15.1422 26.1934 16.6064C27.3573 17.9367 28.0907 19.1418 28.656 20.9238Z" fill="#C3B091"/>
    <path d="M11.344 20.9238C10.596 23.9404 10.9885 25.6856 13.3113 28.6138C13.4952 28.8457 13.7368 29.0273 14.0108 29.1347C15.4718 29.7076 16.1923 29.7129 16.8754 28.3737C17.1161 27.9018 17.0777 27.3287 16.7435 26.9194C16.401 26.4999 15.9574 26.0778 15.4447 25.6343C14.8596 25.1282 14.2778 24.5716 14.0491 23.8277C13.7374 22.8141 13.8318 21.6372 14.2546 19.7561C14.4378 18.9405 14.7291 18.154 15.0882 17.4006C15.5917 16.3439 16.0453 15.248 16.7044 14.283C17.281 13.4387 17.9549 12.5451 18.0966 12.1811C18.1705 11.9913 18.1974 11.8305 18.1998 11.6995C18.204 11.47 17.9569 11.4361 17.8092 11.6103C17.6839 11.758 17.5661 11.8984 17.4549 12.0335C16.2179 13.5359 15.0874 15.1422 13.8065 16.6064C12.6427 17.9367 11.9093 19.1418 11.344 20.9238Z" stroke="#C3B091"/>
    <path d="M28.656 20.9238C29.404 23.9404 29.0115 25.6856 26.6887 28.6138C26.5048 28.8457 26.2632 29.0273 25.9892 29.1347C24.5282 29.7076 23.8077 29.7129 23.1246 28.3737C22.8839 27.9018 22.9223 27.3287 23.2565 26.9194C23.599 26.4999 24.0426 26.0778 24.5553 25.6343C25.1404 25.1282 25.7222 24.5716 25.9509 23.8277C26.2626 22.8141 26.1682 21.6372 25.7454 19.7561C25.5622 18.9405 25.2709 18.154 24.9118 17.4006C24.4083 16.3439 23.9547 15.248 23.2956 14.283C22.719 13.4387 22.0451 12.5451 21.9034 12.1811C21.8295 11.9913 21.8026 11.8305 21.8002 11.6995C21.796 11.47 22.0431 11.4361 22.1908 11.6103C22.3161 11.758 22.4339 11.8984 22.5451 12.0335C23.7821 13.5359 24.9126 15.1422 26.1934 16.6064C27.3573 17.9367 28.0907 19.1418 28.656 20.9238Z" stroke="#C3B091"/>
  </symbol>

  <symbol id="tenge" viewBox="0 0 20 20" fill="none">
    <rect width="20" height="20" rx="10" fill="#838994"/>
    <path d="M10.7469 7.99609V14H9.21034V7.99609H10.7469ZM13 7.99609V9.37109H7V7.99609H13ZM13 6V7.375H7V6H13Z" fill="white"/>
  </symbol>

  <symbol id="ok" viewBox="0 0 20 20" fill="none">
    <rect x="19" y="1" width="18" height="18" rx="9" transform="rotate(90 19 1)" stroke="#C3B091" stroke-width="2"/>
    <path d="M5 9.25L8.84615 13L15 7" stroke="#C3B091" stroke-width="2" stroke-linecap="round"/>
  </symbol>

  <symbol id="upload-file" viewBox="0 0 46 47" fill="none">
    <circle cx="32" cy="14" r="14" fill="#838994"/>
    <path d="M31.2929 20.7071C31.6834 21.0976 32.3166 21.0976 32.7071 20.7071L39.0711 14.3431C39.4616 13.9526 39.4616 13.3195 39.0711 12.9289C38.6805 12.5384 38.0474 12.5384 37.6569 12.9289L32 18.5858L26.3431 12.9289C25.9526 12.5384 25.3195 12.5384 24.9289 12.9289C24.5384 13.3195 24.5384 13.9526 24.9289 14.3431L31.2929 20.7071ZM31 8V20H33V8H31Z" fill="white"/>
    <path d="M14.5 2H5C3.34315 2 2 3.34315 2 5V41.5C2 43.1569 3.34315 44.5 5 44.5H40.5C42.1569 44.5 43.5 43.1569 43.5 41.5V30" stroke="#838994" stroke-width="4" stroke-linecap="round"/>
    <path d="M35.0214 34.9252L39.8793 39.5517C41.1867 40.7968 40.3054 43 38.5 43H27.1732C25.3451 43 24.4752 40.7498 25.8279 39.5201L30.9345 34.8778C32.0985 33.8196 33.8823 33.8402 35.0214 34.9252Z" fill="#838994" stroke="#838994" stroke-width="4" stroke-linecap="round"/>
    <path d="M14.8641 30.026L22.4756 39.7687C23.5014 41.0818 22.5658 43 20.8995 43H4.10049C2.43419 43 1.4986 41.0818 2.52444 39.7687L10.1359 30.026C11.337 28.4886 13.663 28.4886 14.8641 30.026Z" fill="#838994" stroke="#838994" stroke-width="4" stroke-linecap="round"/>
  </symbol>

</svg>
