<svg width="104" height="136" viewBox="0 0 104 136" fill="none" xmlns="http://www.w3.org/2000/svg">
<path d="M81.8394 29.8931C81.8386 35.7876 80.0876 41.5496 76.8079 46.4503C73.5282 51.3511 68.8671 55.1705 63.4138 57.4257C57.9606 59.6809 51.9602 60.2706 46.1714 59.1201C40.3827 57.9697 35.0654 55.1308 30.8922 50.9624C26.7189 46.7941 23.877 41.4835 22.7258 35.7022C21.5746 29.9208 22.1658 23.9284 24.4247 18.4826C26.6836 13.0369 30.5087 8.38234 35.4163 5.10759C40.324 1.83284 46.0937 0.084961 51.996 0.0849609C55.9154 0.0852208 59.7963 0.856437 63.4172 2.35458C67.0381 3.85271 70.3281 6.04844 73.0993 8.81638C75.8705 11.5843 78.0687 14.8703 79.5683 18.4866C81.0679 22.103 81.8396 25.9789 81.8394 29.8931ZM51.996 68.5166C43.545 68.5066 35.1846 70.256 27.4484 73.6531C19.7122 77.0502 12.7699 82.0205 7.06455 88.2468C-3.00674 99.2052 -0.539938 116.638 12.1408 124.44C24.1308 131.793 37.9259 135.686 51.996 135.686C66.0661 135.686 79.8612 131.793 91.8512 124.44C104.532 116.638 106.999 99.2052 96.9275 88.2468C91.2221 82.0205 84.2799 77.0502 76.5436 73.6531C68.8074 70.256 60.4471 68.5066 51.996 68.5166Z" fill="#DFE3EA"/>
</svg>
