<svg width="943" height="795" viewBox="0 0 943 795" fill="none" xmlns="http://www.w3.org/2000/svg">
<path d="M74.0803 230.49C77.5814 227.455 82.3608 224.383 83.9192 220.118C83.0759 219.262 81.6725 218.591 80.4082 218.533C80.1455 219.32 77.3504 226.381 76.3776 225.617C68.3839 219.295 54.91 225.737 50.6605 234.034C45.8138 243.518 47.7305 256.758 37.7786 264.075C51.9048 261.065 68.1325 260.314 77.4997 247.84C80.8984 243.326 83.5835 231.95 77.0908 229.438C70.7469 235.464 67.5909 239.242 66.5798 247.496C65.9906 245.127 66.3723 242.441 66.0159 240.006C61.382 244.466 57.882 249.136 51.7925 251.907C57.0134 245.104 64.411 239.582 69.6603 232.829C67.1207 232.825 64.5067 232.551 62.3519 231.535C66.0465 230.76 70.5111 230.671 74.0803 230.49Z" fill="#0F7A4F"/>
<path d="M52.3697 148.538C56.5757 153.247 60.7738 159.97 66.8618 161.271C68.1423 159.704 69.1851 157.304 69.3325 155.287C68.2092 155.087 58.1405 152.588 59.2967 150.842C68.8469 136.481 60.2292 116.924 48.4494 112.467C34.9853 107.385 15.7448 114.023 5.67456 100.277C9.30155 121.796 9.55215 147.254 27.1066 158.669C33.4583 162.815 49.7722 163.961 53.736 153.01C45.3485 144.619 40.0486 140.66 28.1668 141.306C31.6225 139.729 35.4865 139.605 39.027 138.376C32.815 132.263 26.2414 127.999 22.5486 119.124C32.1196 125.527 39.7194 135.723 49.2129 142.184C49.3512 138.165 49.8826 133.956 51.4625 130.273C52.3938 135.903 52.2918 142.941 52.37 148.537L52.3697 148.538Z" fill="#0F7A4F"/>
<path d="M131.442 258.67C127.736 258.769 123.211 258.229 120.096 260.11C120.19 261.085 120.726 262.236 121.486 262.929C122.045 262.569 127.337 259.564 127.56 260.549C129.357 268.675 140.989 271.595 147.807 268.566C155.598 265.1 161.065 255.765 170.944 256.306C160.633 250.887 150.152 242.955 138.041 245.964C133.655 247.047 126.259 252.827 129.038 257.773C136.02 257.261 139.886 256.515 144.668 251.837C143.843 253.635 142.253 255.129 141.251 256.849C146.379 256.438 150.909 255.308 156.096 256.715C149.421 258.3 142.035 257.948 135.371 259.484C136.95 260.803 138.44 262.33 139.269 264.086C136.579 262.66 133.755 260.405 131.442 258.67H131.442Z" fill="#0F7A4F"/>
<path d="M114.917 223.388C117.248 219.134 120.83 214.389 120.798 209.6C119.655 209.064 118.035 208.907 116.762 209.305C116.802 210.187 116.636 218.159 115.388 217.75C105.217 214.385 94.3333 225.598 93.1797 235.308C91.8768 246.42 98.599 258.805 91.48 269.61C104.277 261.558 119.961 254.972 124.609 239.284C126.306 233.611 124.793 221.41 117.486 221.267C113.451 229.495 111.726 234.366 113.753 242.869C112.305 240.748 111.697 237.961 110.457 235.689C107.527 241.751 105.797 247.63 100.829 252.559C103.475 243.965 108.729 235.844 111.41 227.283C108.918 228.203 106.257 228.869 103.762 228.653C107.114 226.537 111.464 224.846 114.917 223.388L114.917 223.388Z" fill="#0F7A4F"/>
<path d="M303.022 188.741C299.903 190.752 295.759 192.642 294.055 195.878C294.63 196.666 295.676 197.377 296.679 197.576C296.974 196.976 299.968 191.643 300.659 192.373C306.343 198.421 317.78 194.88 322.065 188.734C326.961 181.706 326.872 170.841 335.596 166.17C324.014 166.875 311.004 165.51 302.183 174.393C298.985 177.605 295.608 186.416 300.508 189.219C306.219 185.15 309.143 182.498 310.847 175.993C311.059 177.967 310.462 180.078 310.483 182.077C314.66 179.056 317.956 175.73 323.109 174.24C318.209 179.074 311.713 182.61 306.798 187.397C308.82 187.708 310.874 188.245 312.479 189.324C309.451 189.498 305.887 189.028 303.022 188.741H303.022Z" fill="#0F7A4F"/>
<path d="M315.289 138.463C313.241 144.872 309.625 152.281 310.932 158.794C312.633 159.217 314.877 159.006 316.507 158.126C316.216 156.934 314.331 146.04 316.139 146.263C330.875 148.15 342.723 130.002 341.72 116.478C340.551 101.01 328.122 85.9264 334.948 69.332C319.66 83.6862 300.054 96.8036 297.882 119.391C297.075 127.564 302.366 143.772 312.349 142.027C315.667 129.759 316.721 122.676 311.712 111.636C314.246 114.137 315.811 117.774 318.1 120.538C320.481 111.509 321.28 103.048 326.741 95.0222C325.412 107.421 320.41 119.868 319.029 132.231C322.18 130.321 325.622 128.711 329.081 128.341C325.075 132.112 319.599 135.564 315.288 138.462L315.289 138.463Z" fill="#0F7A4F"/>
<path d="M164.579 152.698C167.033 157.339 169.217 163.412 173.534 166.205C174.673 165.48 175.771 164.08 176.162 162.675C175.348 162.193 168.28 157.35 169.369 156.462C178.357 149.127 174.648 132.563 166.583 125.785C157.36 118.056 142.286 116.917 136.727 104.033C136.483 120.485 133.214 138.712 144.596 152.215C148.716 157.099 160.571 162.897 164.979 156.298C159.942 147.754 156.573 143.315 147.738 140.155C150.497 140.085 153.36 141.17 156.128 141.375C152.383 135.128 148.12 130.08 146.6 122.63C152.785 130.111 157.001 139.702 163.118 147.195C163.762 144.377 164.72 141.538 166.388 139.391C166.312 143.703 165.283 148.68 164.579 152.698Z" fill="#0F7A4F"/>
<path d="M189.533 132.207C186.947 135.004 183.325 137.947 182.449 141.606C183.214 142.229 184.435 142.666 185.486 142.608C185.623 141.935 187.239 135.876 188.107 136.426C195.269 140.967 205.698 134.509 208.399 127.304C211.473 119.073 208.644 108.309 216.115 101.422C204.816 105.104 191.581 107.096 185.079 118.182C182.728 122.196 181.604 131.803 187.169 133.33C191.8 127.82 194.028 124.439 194.071 117.545C194.779 119.451 194.721 121.699 195.245 123.677C198.618 119.601 201.046 115.455 205.773 112.652C202.143 118.71 196.598 123.89 192.94 129.9C195.022 129.694 197.189 129.695 199.056 130.354C196.09 131.31 192.448 131.761 189.533 132.207Z" fill="#0F7A4F"/>
<path d="M58.0827 200.197C63.4892 201.278 69.8716 203.567 75.0123 201.871C75.1919 200.427 74.7799 198.585 73.9052 197.319C72.9717 197.664 64.3215 200.261 64.3275 198.76C64.363 186.392 48.4354 178.315 37.5597 180.444C25.1362 182.882 14.1645 194.592 -0.000244141 190.533C13.203 201.79 25.8268 216.755 44.3783 216.41C51.0952 216.287 63.6933 210.375 61.2735 202.291C50.9754 200.709 45.1255 200.511 36.6753 205.715C38.4517 203.381 41.2415 201.731 43.2557 199.574C35.6895 198.476 28.7489 198.615 21.6827 194.86C31.8713 194.78 42.4669 197.733 52.6365 197.709C50.7792 195.278 49.118 192.577 48.4815 189.763C51.929 192.709 55.2921 196.917 58.0823 200.198L58.0827 200.197Z" fill="#0F7A4F"/>
<path d="M154.04 209.536C156.049 206.816 158.949 203.864 159.369 200.555C158.624 200.075 157.51 199.809 156.587 199.964C156.538 200.579 155.705 206.078 154.879 205.684C148.132 202.387 139.567 209.113 137.895 215.738C135.998 223.307 139.536 232.508 133.625 239.319C143.222 234.953 154.686 231.887 159.335 221.464C161.01 217.694 161.064 209.108 156.012 208.313C152.467 213.628 150.843 216.841 151.471 222.92C150.666 221.304 150.492 219.324 149.838 217.632C147.264 221.553 145.532 225.456 141.635 228.394C144.255 222.697 148.627 217.574 151.263 211.907C149.449 212.299 147.544 212.513 145.826 212.124C148.349 210.982 151.519 210.226 154.039 209.535L154.04 209.536Z" fill="#0F7A4F"/>
<path d="M188.442 266.158C188.987 270.215 188.938 275.24 191.337 278.456C192.378 278.247 193.55 277.527 194.213 276.613C193.75 276.038 189.892 270.563 190.926 270.217C199.47 267.349 201.232 254.26 197.161 247.109C192.507 238.944 181.804 233.965 181.219 223.057C176.609 234.971 169.302 247.35 173.98 260.313C175.669 265.011 182.763 272.489 187.762 268.896C186.39 261.283 185.126 257.125 179.515 252.394C181.55 253.101 183.357 254.677 185.328 255.589C184.275 250.011 182.517 245.161 183.42 239.317C185.913 246.464 186.407 254.606 188.856 261.752C190.089 259.877 191.555 258.077 193.346 256.968C192.133 260.083 190.038 263.432 188.441 266.159L188.442 266.158Z" fill="#0F7A4F"/>
<path d="M245.275 273.982C250.819 269.351 258.378 264.714 260.912 258.056C259.616 256.668 257.429 255.55 255.445 255.4C255.016 256.631 250.488 267.647 248.984 266.4C236.606 256.074 215.357 265.64 208.525 278.538C200.724 293.276 203.44 314.245 187.69 325.356C209.879 321.229 235.303 320.761 250.252 301.496C255.672 294.527 260.128 276.704 250.016 272.461C239.948 281.684 234.923 287.502 233.162 300.471C232.287 296.716 232.946 292.489 232.436 288.632C225.08 295.468 219.494 302.682 209.904 306.781C218.229 296.279 229.935 287.895 238.305 277.482C234.322 277.359 230.241 276.811 226.886 275.11C232.693 274.052 239.682 274.115 245.275 273.982H245.275Z" fill="#0F7A4F"/>
<path d="M267.64 185.386C273.575 187.597 280.409 191.347 286.528 190.367C286.993 188.766 286.862 186.603 286.092 185.024C284.979 185.234 274.706 186.596 274.974 184.9C277.228 170.913 260.618 158.856 247.911 159.282C233.393 159.769 218.868 171.034 203.544 163.857C216.486 179.011 228.12 198.252 249.211 201.243C256.843 202.333 272.19 197.932 270.889 188.341C259.496 184.684 252.902 183.39 242.392 187.724C244.818 185.41 248.282 184.064 250.953 181.986C242.558 179.355 234.667 178.243 227.336 172.707C238.909 174.472 250.393 179.748 261.921 181.589C260.247 178.487 258.847 175.128 258.631 171.822C262.001 175.797 265.059 181.164 267.64 185.385V185.386Z" fill="#0F7A4F"/>
<path d="M305.633 261.045C300.448 258.438 294.604 254.36 288.915 254.602C288.343 256.001 288.251 257.947 288.792 259.457C289.839 259.368 299.313 259.211 298.904 260.727C295.477 273.052 309.414 285.589 321.013 286.538C334.291 287.612 348.624 279.025 361.865 287.077C351.579 272.103 342.87 253.623 323.971 248.749C317.139 246.964 302.728 249.305 302.965 258.066C312.963 262.536 318.851 264.387 328.842 261.59C326.403 263.409 323.125 264.26 320.494 265.85C327.859 269.081 334.937 270.899 341.08 276.632C330.718 273.843 320.776 267.908 310.457 265.071C311.685 268.016 312.619 271.166 312.512 274.169C309.808 270.25 307.558 265.105 305.633 261.045Z" fill="#0F7A4F"/>
<path d="M95.159 77.0702C92.8065 81.4346 89.1802 86.3119 89.2479 91.1896C90.4139 91.7396 92.0815 91.8934 93.3742 91.478C93.3371 90.5902 93.4449 82.4283 94.7103 82.8376C105.146 86.2356 116.21 74.726 117.303 64.7813C118.549 53.4191 111.576 40.7855 118.766 29.7012C105.743 37.995 89.7472 44.7916 85.1072 60.8545C83.42 66.6673 85.0672 79.1365 92.5411 79.2507C96.6051 70.8163 98.3301 65.8324 96.1984 57.1353C97.6902 59.3041 98.3324 62.1548 99.6224 64.4778C102.569 58.2571 104.297 52.2444 109.348 47.183C106.707 55.9889 101.391 64.3065 98.7039 73.066C101.252 72.1256 103.978 71.4316 106.529 71.6535C103.116 73.811 98.6741 75.5625 95.1593 77.0694L95.159 77.0702Z" fill="#0F7A4F"/>
<path d="M69.4255 85.6397C72.82 89.4768 76.2682 94.7389 81.0068 96.3895C81.9317 95.4223 82.648 93.8457 82.6986 92.4253C81.8123 92.16 73.9981 89.2001 74.8346 88.0844C81.6811 79.0339 74.381 64.1562 65.1865 59.5964C54.668 54.3963 40.1041 56.818 31.9041 45.875C35.4184 61.5672 36.4862 79.6534 50.369 89.8257C55.3839 93.5196 67.9585 96.267 70.6323 88.9658C63.9071 82.0255 59.6909 78.5867 50.5912 77.646C53.1864 76.9331 56.1523 77.2971 58.8257 76.8435C53.8527 71.7735 48.647 67.9756 45.5015 61.2516C53.0707 66.9211 59.2694 75.0542 66.7963 80.7457C66.7525 77.9196 67.0178 75.0077 68.0954 72.5748C69.0225 76.6878 69.1854 81.6559 69.4258 85.6397H69.4255Z" fill="#0F7A4F"/>
<path d="M401.353 230.177C402.392 233.433 403.075 237.566 405.517 239.861C406.34 239.528 407.198 238.769 407.61 237.922C407.143 237.516 403.182 233.588 403.988 233.142C410.582 229.523 410.128 218.503 405.756 213.227C400.751 207.199 391.242 204.686 389.184 195.809C387.116 206.286 382.915 217.546 388.634 227.507C390.695 231.118 397.61 236.223 401.197 232.527C398.962 226.477 397.322 223.241 392.035 220.182C393.808 220.46 395.515 221.492 397.259 221.947C395.594 217.514 393.447 213.786 393.334 208.849C396.421 214.356 398.01 220.981 401.064 226.491C401.798 224.766 402.737 223.072 404.049 221.89C403.507 224.64 402.275 227.696 401.353 230.176V230.177Z" fill="#0F7A4F"/>
<path d="M396.942 132.031C402.316 129.115 409.44 126.484 412.465 121.547C411.515 120.273 409.757 119.098 408.053 118.703C407.535 119.63 402.237 127.727 401.097 126.528C391.677 116.665 372.1 121.349 364.578 130.632C355.982 141.24 355.694 158.202 340.672 164.858C360.387 164.596 382.442 167.696 397.795 154.48C403.353 149.696 409.436 136.205 401.225 131.465C391.349 137.39 386.273 141.314 383.14 151.346C382.85 148.252 383.937 144.994 383.983 141.877C376.777 146.282 371.041 151.233 362.227 153.172C370.742 146 381.917 140.958 390.457 133.846C387.034 133.209 383.573 132.219 380.88 130.423C386.04 130.367 392.082 131.362 396.942 132.031Z" fill="#0F7A4F"/>
<path d="M508.287 88.3678C509.568 85.3815 511.655 82.01 511.241 78.7367C510.394 78.4075 509.24 78.3437 508.384 78.6581C508.486 79.2621 509.05 84.7261 508.149 84.4932C500.749 82.4919 494.081 90.5139 494.103 97.2153C494.142 104.874 499.889 113.155 495.826 120.787C504.09 114.867 514.497 109.879 516.428 98.9759C517.12 95.0299 515.026 86.7153 509.907 86.8355C507.777 92.6063 506.998 95.9998 509.124 101.771C507.936 100.348 507.277 98.4656 506.215 96.9417C504.686 101.19 503.972 105.274 500.908 108.802C502.039 102.83 505.022 97.0993 506.176 91.15C504.506 91.8531 502.701 92.3939 500.934 92.3176C503.106 90.7698 506.005 89.4783 508.288 88.3674L508.287 88.3678Z" fill="#0F7A4F"/>
<path d="M118.854 165.309C126.76 168.757 135.399 170.762 143.789 171.313C152.2 171.866 160.73 170.009 169.066 170.414C174.308 163.592 182.837 159.817 191.849 162.235C210.449 167.231 192.954 186.505 189.401 175.846C193.641 182.498 204.028 167.578 188.87 165.128C180.629 163.8 173.711 170.264 171.127 178.18C170.794 179.195 170.531 180.241 170.349 181.291C168.223 193.507 177.583 202.252 187.928 207.433C213.324 220.143 239.613 208.245 263.147 206.465C287.712 204.61 311.187 200.806 336.508 203.531C343.241 204.251 349.3 205.895 355.922 206.006C351.049 195.405 351.096 184.519 363.767 185.05C368.805 185.261 377.907 191.245 377.555 198.217C377.343 202.416 372.977 204.437 369.861 200.626C381.821 198.759 354.066 177.055 358.696 197.975C364.118 222.478 392.614 224.281 411.506 233.433C428.19 241.515 446.402 251.83 458.465 266.56C458.556 265.135 458.611 263.716 458.537 262.327C458.292 257.557 458.566 252.757 457.94 247.987C456.764 239.023 452.64 228.329 443.816 224.064C439.632 222.041 423.311 221.875 426.286 230.308C427.229 232.982 431.697 234.625 433.578 232.595C434.924 235.53 431.348 236.587 429.044 236.358C422.025 235.65 420.009 226.614 424.42 222.418C430.545 216.582 440.501 218.449 447.669 222.755C451.626 225.134 452.593 227.749 455.066 231.329C456.905 233.994 463.126 239.754 461.876 243.426C463.873 237.532 461.883 228.477 461.306 222.129C460.573 214.044 459.518 205.972 458.511 197.896C456.541 182.04 454.702 166.053 455.775 150.29C456.116 145.256 458.102 141.136 455.953 136.078C453.959 131.395 450.053 127.774 446.729 124.013C439.768 116.139 425.018 100.987 429.683 89.9103C432.603 82.9878 444.317 85.8335 444.293 93.8332C444.272 101.384 432.987 98.2267 437.651 91.8262C434.406 96.2753 444.233 98.0309 442.358 91.4936C441.549 88.6433 437.644 87.2494 435.065 88.5594C430.2 91.0298 432.775 98.0147 434.814 101.957C438.473 109.025 443.285 115.288 448.898 120.851C450.532 122.469 454.672 128.583 457.145 128.869C466.208 129.912 467.23 86.1544 466.611 80.0914C464.529 59.7101 456.37 35.7911 433.609 30.6001C429.44 29.6536 413.621 29.2919 417.284 38.3583C418.764 42.0128 424.173 43.0462 423.91 38.3885C423.288 48.2089 411.157 44.3464 413.521 34.3941C417.638 17.0699 446.578 30.6749 455.001 38.1315C464.227 46.2975 470.094 57.4574 472.521 69.2406C473.761 75.2571 473.474 80.9256 473.821 86.9149C474.188 93.2103 475.803 99.3788 475.596 105.759C481.855 104.594 487.839 96.1989 487.309 89.7043C486.655 81.7038 480.066 86.7104 482.675 88.4483C480.443 86.9663 479.854 83.1707 483.2 82.0708C487.7 80.5793 490.301 86.1173 490.48 89.8275C490.67 93.727 488.777 97.5505 487.002 100.729C481.68 110.277 471.854 116.444 468.207 126.737C464.346 137.663 463.561 149.913 465.606 161.768C467.137 170.613 466.485 179.757 468.531 188.539C469.418 192.33 471.291 201.315 475.245 203.188C477.019 204.034 482.173 202.401 483.964 202.111C491.425 200.902 496.299 197.128 502.276 192.887C510.893 186.78 518.503 179.289 527.077 173.068C532.291 169.283 542.787 162.079 537.476 153.383C534.189 148.008 528.641 152.069 533.359 154.985C528.146 159.011 525.491 144.758 534.931 146.81C540.739 148.071 543.199 153.939 542.964 159.316C542.761 163.809 539.673 166.833 536.795 169.71C534.137 172.347 532.455 175.532 529.704 178.088C525.674 181.812 520.63 184.319 516.071 187.243C511.204 190.364 507.717 195.437 503.379 199.307C512.328 200.283 536.662 191.922 538.273 207.62C540.264 226.982 514.59 204.493 529.429 206.553C523.396 206.695 531.352 213.784 532.844 207.735C534.323 201.707 519.347 202.05 516.136 202.434C508.922 203.294 503.268 207.655 497.261 210.866C485.471 217.176 480.347 220.873 476.762 234.792C475.452 239.867 475.065 245.085 475.347 250.334C476.911 253.003 478.577 256.459 480.315 260.823C480.748 267.195 481.146 273.026 481.507 278.406C481.718 278.102 481.935 277.798 482.158 277.496C494.132 261.295 513.548 250.211 531.243 241.64C550.136 232.488 578.631 230.685 584.053 206.182C588.683 185.262 560.929 206.966 572.888 208.832C569.772 212.644 565.407 210.623 565.195 206.423C564.843 199.451 573.944 193.467 578.983 193.257C591.655 192.726 591.701 203.611 586.828 214.213C593.45 214.102 599.508 212.457 606.242 211.737C631.562 209.012 655.038 212.817 679.603 214.672C703.136 216.452 729.425 228.349 754.822 215.64C765.167 210.459 774.526 201.714 772.401 189.498C772.218 188.448 771.956 187.402 771.622 186.387C769.039 178.471 762.121 172.007 753.88 173.335C738.721 175.785 749.109 190.704 753.348 184.053C749.795 194.712 732.3 175.438 750.9 170.442C759.912 168.023 768.442 171.798 773.683 178.621C782.02 178.216 790.55 180.072 798.961 179.52C807.35 178.969 815.99 176.963 823.895 173.516C830.408 170.663 836.42 166.836 841.368 162.026C850.748 152.908 874.447 125.666 853.591 114.522C848.799 111.964 837.516 113.533 835.62 119.319C834.188 123.69 838.214 129.935 842.893 127.417C834.803 135.208 828.631 119.438 834.078 112.94C843.737 101.427 862.344 106.491 866.308 121.052C869.877 134.185 862.198 149.357 854.84 159.092C852.078 162.747 848.979 166.119 845.71 169.298C844.993 169.997 838.59 177.249 837.875 177.103C839.952 177.517 842.034 179.232 843.795 180.398C846.424 182.131 848.761 184.219 850.801 186.683C855.967 192.908 858.141 202.879 857.105 210.62C856.354 216.279 852.342 221.653 846.708 222.738C841.413 223.754 830.34 217.335 835.751 211.186C837.892 208.759 841.127 210.761 841.312 213.859C841.125 212.543 839.978 211.729 839.099 213.065C838.143 214.52 840.768 217.566 841.944 218.11C844.036 219.084 847.356 217.929 848.907 216.55C851.954 213.832 851.126 208.791 851.041 205.003C850.878 197.893 845.715 192.728 839.78 189.689C832.471 185.956 827.84 187.223 820.298 187.917C813.486 188.541 807.829 190.229 801.204 192.082C793.861 194.133 789.851 199.755 782.314 201.059C780.243 223.988 754.732 238.841 737.5 239.448C721.844 240.008 706.914 239.565 691.821 237.7C679.556 236.177 666.608 232.913 653.482 235.745C668.805 240.483 685.757 262.566 677.189 284.549C673.539 293.911 656.945 304.838 653.956 292.85C652.545 287.201 657.616 275.879 663.097 279.83C658.746 276.693 656.229 284.774 658.132 287.972C660.493 291.944 668.201 290.143 670.979 285.251C677.088 274.511 669.068 267.318 662.935 262.623C654.272 255.998 643.053 247.266 632.393 244.323C578.874 229.544 536.061 271.773 500.445 315.404C502.353 351.308 512.846 358.799 509.139 426.165C508.232 442.645 495.277 487.389 509.676 494.458C526.304 509.107 542.636 490.311 547.666 507.361C540.078 511.248 548.539 521.958 542.53 528.132C536.779 534.037 535.598 544.103 533.426 552.218C528.981 568.821 505.341 606.933 504.753 624.086C504.673 626.423 504.645 628.767 504.673 631.12C504.991 657.288 510.435 696.487 518.367 721.354C522.42 734.057 527.294 746.549 533.579 758.326C536.263 763.356 538.727 788.337 544.935 788.547C539.987 788.378 535.395 789.546 530.381 789.049C524.974 788.514 519.73 786.839 514.31 786.408C494.73 784.85 458.589 782.7 438.977 784.611C416.992 786.752 394.862 799.041 372.776 793.092C374.999 793.691 380.576 791.537 380.255 788.564C379.845 784.765 371.256 785.996 368.754 786.017C355.901 786.131 336.588 787.956 321.213 786.077C344.617 768.217 369.504 760.173 385.111 733.074C401.709 704.252 409.973 659.488 409.973 626.28C409.973 602.794 409.99 547.978 403.454 525.139C399.697 512.005 395.153 499.696 388.483 487.85C380.887 471.41 373.061 459.473 381.568 454.748C386.537 451.988 392.516 451.98 400.528 453.343C408.241 454.654 410.989 452.057 416.776 446.553C428.145 435.735 404.041 416.379 408.354 401.846C421.29 358.254 411.721 332.736 412.113 306.593C411.931 304.451 411.79 302.478 411.684 300.654C387.097 255.312 362.526 223.169 308.983 237.955C298.323 240.897 287.104 249.628 278.441 256.253C272.308 260.949 264.288 268.141 270.396 278.881C273.174 283.773 280.883 285.574 283.243 281.604C285.147 278.405 282.629 270.323 278.279 273.462C283.761 269.51 288.83 280.83 287.421 286.481C284.432 298.47 267.836 287.542 264.187 278.181C255.619 256.197 273.199 240.395 288.521 235.657C275.396 232.824 264.347 230.865 252.082 232.387C236.989 234.253 222.06 234.696 206.403 234.136C189.17 233.529 165.974 211.732 163.904 188.803C156.367 187.5 148.885 185.927 141.543 183.876C134.918 182.024 129.261 180.336 122.449 179.712C114.906 179.017 110.276 177.75 102.967 181.483C97.0328 184.523 91.8682 189.688 91.7057 196.797C91.6203 200.585 90.7925 205.626 93.8393 208.344C95.3909 209.723 98.7106 210.879 100.803 209.904C101.979 209.36 104.604 206.314 103.648 204.859C102.768 203.524 101.622 204.337 101.434 205.653C101.62 202.555 104.855 200.553 106.996 202.981C112.407 209.129 101.334 215.548 96.0384 214.533C90.4055 213.447 86.3922 208.074 85.6416 202.414C84.6056 194.674 86.78 184.702 91.9453 178.477C93.986 176.013 96.3226 173.925 98.9521 172.192C100.713 171.026 102.796 169.311 104.872 168.898C104.157 169.043 97.7536 161.792 97.0373 161.092C93.7679 157.915 90.6689 154.541 87.9075 150.886C80.5484 141.152 72.8704 125.98 76.4388 112.847C80.4033 98.2849 99.0096 93.2213 108.669 104.734C114.115 111.232 107.944 127.002 99.8544 119.211C104.533 121.73 108.559 115.484 107.127 111.113C105.231 105.328 93.9478 103.758 89.1559 106.317C68.2988 117.461 91.9986 144.703 101.379 153.82C106.327 158.63 112.339 162.458 118.852 165.31L118.854 165.309Z" fill="#0F7A4F"/>
<path d="M868.607 241.248C863.863 237.013 857.364 232.7 855.311 226.814C856.486 225.657 858.426 224.763 860.162 224.709C860.506 225.794 864.201 235.543 865.551 234.515C876.651 225.997 895.016 235.111 900.682 246.585C907.144 259.701 904.247 277.835 917.759 288.079C898.43 283.663 876.171 282.306 863.564 264.996C858.99 258.731 855.533 243.062 864.495 239.744C873.082 248.143 877.338 253.392 878.559 264.744C879.416 261.503 878.946 257.809 879.484 254.473C885.755 260.688 890.465 267.169 898.768 271.095C891.739 261.651 881.696 253.924 874.627 244.549C878.113 244.594 881.707 244.271 884.685 242.919C879.629 241.78 873.503 241.569 868.607 241.248H868.607Z" fill="#0F7A4F"/>
<path d="M890.381 156.745C886.175 161.454 881.977 168.177 875.889 169.478C874.608 167.911 873.565 165.511 873.418 163.494C874.541 163.294 884.61 160.795 883.454 159.05C873.904 144.688 882.521 125.131 894.301 120.674C907.765 115.592 927.005 122.23 937.076 108.484C933.449 130.003 933.198 155.461 915.644 166.876C909.292 171.022 892.978 172.168 889.015 161.218C897.402 152.826 902.702 148.867 914.584 149.513C911.128 147.936 907.264 147.812 903.724 146.583C909.936 140.47 916.509 136.206 920.202 127.331C910.631 133.734 903.031 143.93 893.538 150.391C893.399 146.372 892.868 142.163 891.288 138.48C890.356 144.11 890.459 151.148 890.38 156.744L890.381 156.745Z" fill="#0F7A4F"/>
<path d="M809.425 265.979C813.131 266.078 817.656 265.538 820.771 267.419C820.677 268.394 820.141 269.545 819.381 270.237C818.822 269.877 813.529 266.872 813.307 267.857C811.51 275.983 799.878 278.904 793.06 275.875C785.269 272.409 779.802 263.073 769.923 263.615C780.234 258.196 790.715 250.263 802.825 253.272C807.211 254.356 814.608 260.135 811.829 265.082C804.847 264.57 800.981 263.824 796.198 259.145C797.024 260.944 798.614 262.438 799.616 264.158C794.488 263.747 789.958 262.617 784.771 264.023C791.445 265.609 798.832 265.256 805.496 266.793C803.917 268.112 802.426 269.639 801.598 271.394C804.288 269.968 807.111 267.714 809.425 265.979H809.425Z" fill="#0F7A4F"/>
<path d="M831.564 252.368C832.469 255.203 834.07 258.481 833.49 261.362C832.739 261.55 831.744 261.455 831.025 261.066C831.152 260.539 831.986 255.719 831.187 255.819C824.666 256.654 819.425 248.625 819.868 242.641C820.385 235.796 825.885 229.124 822.864 221.781C829.627 228.13 838.303 233.936 839.265 243.929C839.621 247.545 837.28 254.716 832.863 253.946C831.396 248.518 830.928 245.382 833.146 240.498C832.025 241.606 831.332 243.214 830.319 244.437C829.265 240.442 828.912 236.698 826.496 233.147C827.083 238.633 829.296 244.141 829.908 249.611C828.515 248.764 826.99 248.052 825.462 247.89C827.233 249.557 829.655 251.086 831.563 252.368H831.564Z" fill="#0F7A4F"/>
<path d="M629.728 192.989C633.593 195.481 638.728 197.822 640.839 201.832C640.127 202.809 638.831 203.69 637.588 203.937C637.222 203.193 633.513 196.585 632.657 197.489C625.614 204.983 611.442 200.596 606.133 192.98C600.067 184.272 600.176 170.81 589.366 165.021C603.717 165.895 619.838 164.203 630.768 175.21C634.731 179.19 638.915 190.108 632.843 193.582C625.767 188.54 622.145 185.254 620.033 177.194C619.77 179.64 620.509 182.255 620.484 184.732C615.309 180.99 611.225 176.867 604.84 175.021C610.911 181.011 618.96 185.393 625.051 191.324C622.545 191.71 620 192.375 618.011 193.712C621.763 193.927 626.18 193.345 629.729 192.989L629.728 192.989Z" fill="#0F7A4F"/>
<path d="M686.323 127.69C690.957 130.019 696.988 132.023 699.87 136.255C699.186 137.421 697.859 138.543 696.495 138.966C695.996 138.163 691.012 131.25 690.16 132.365C683.252 141.499 666.866 138.237 659.959 130.391C652.07 121.404 650.466 106.423 637.644 101.233C653.796 100.554 671.595 96.8306 685.208 107.817C690.143 111.78 696.217 123.437 689.871 127.994C681.325 123.205 676.855 119.965 673.477 111.252C673.487 113.997 674.647 116.82 674.934 119.572C668.677 116.013 663.586 111.89 656.22 110.569C663.765 116.524 673.319 120.482 680.873 126.39C678.121 127.095 675.378 128.123 673.309 129.828C677.547 129.655 682.402 128.501 686.323 127.69Z" fill="#0F7A4F"/>
<path d="M778.172 160.905C775.718 165.546 773.534 171.619 769.217 174.412C768.077 173.687 766.98 172.287 766.588 170.882C767.403 170.4 774.47 165.557 773.382 164.669C764.394 157.334 768.102 140.77 776.167 133.992C785.39 126.263 800.465 125.124 806.023 112.24C806.268 128.692 809.537 146.919 798.155 160.422C794.035 165.306 782.18 171.104 777.771 164.505C782.809 155.961 786.177 151.522 795.012 148.362C792.254 148.292 789.391 149.377 786.623 149.582C790.368 143.335 794.631 138.287 796.151 130.837C789.965 138.318 785.75 147.909 779.632 155.402C778.989 152.584 778.031 149.745 776.363 147.598C776.439 151.91 777.468 156.887 778.172 160.905Z" fill="#0F7A4F"/>
<path d="M740.281 156.467C743.956 160.44 749.102 164.621 750.345 169.819C749.258 170.705 747.525 171.326 746.032 171.244C745.837 170.287 743.541 161.679 742.308 162.46C732.133 168.912 717.317 159.736 713.48 149.502C709.112 137.807 713.132 122.515 702.517 112.73C718.57 117.962 737.372 120.792 746.609 136.541C749.949 142.243 751.546 155.893 743.64 158.062C737.061 150.233 733.895 145.431 733.834 135.636C732.829 138.344 732.911 141.537 732.167 144.348C727.374 138.559 723.925 132.667 717.21 128.685C722.367 137.292 730.245 144.651 735.441 153.189C732.483 152.896 729.405 152.898 726.752 153.834C730.966 155.193 736.141 155.833 740.28 156.467H740.281Z" fill="#0F7A4F"/>
<path d="M884.668 208.404C879.261 209.485 872.879 211.774 867.738 210.078C867.559 208.634 867.971 206.792 868.845 205.526C869.778 205.871 878.429 208.468 878.423 206.967C878.387 194.599 894.315 186.522 905.191 188.651C917.614 191.089 928.586 202.8 942.751 198.74C929.547 209.997 916.924 224.962 898.372 224.617C891.655 224.494 879.057 218.582 881.476 210.498C891.775 208.916 897.625 208.719 906.075 213.922C904.299 211.588 901.509 209.938 899.495 207.781C907.061 206.683 914.002 206.822 921.068 203.067C910.879 202.987 900.284 205.94 890.114 205.916C891.971 203.486 893.632 200.785 894.269 197.97C890.821 200.916 887.458 205.124 884.668 208.405L884.668 208.404Z" fill="#0F7A4F"/>
<path d="M793.157 214.993C791.15 212.276 788.253 209.326 787.833 206.021C788.577 205.541 789.691 205.276 790.612 205.431C790.661 206.046 791.493 211.538 792.319 211.145C799.059 207.851 807.615 214.571 809.286 221.189C811.182 228.75 807.646 237.943 813.553 244.748C803.964 240.385 792.512 237.322 787.868 226.909C786.194 223.143 786.14 214.566 791.187 213.771C794.728 219.081 796.351 222.29 795.723 228.364C796.528 226.75 796.702 224.772 797.355 223.082C799.926 226.999 801.657 230.898 805.55 233.833C802.933 228.141 798.565 223.024 795.932 217.362C797.743 217.753 799.647 217.968 801.362 217.579C798.842 216.438 795.676 215.682 793.158 214.993L793.157 214.993Z" fill="#0F7A4F"/>
<path d="M755.165 276.076C754.62 280.133 754.669 285.158 752.269 288.374C751.229 288.165 750.057 287.445 749.394 286.531C749.857 285.956 753.715 280.481 752.68 280.135C744.136 277.267 742.375 264.177 746.446 257.027C751.1 248.862 761.803 243.883 762.387 232.975C766.998 244.889 774.304 257.268 769.627 270.231C767.938 274.929 760.844 282.407 755.845 278.814C757.217 271.201 758.481 267.043 764.092 262.312C762.056 263.019 760.25 264.595 758.279 265.507C759.332 259.929 761.09 255.079 760.187 249.235C757.693 256.381 757.2 264.524 754.751 271.67C753.517 269.795 752.052 267.995 750.261 266.886C751.474 270.001 753.568 273.35 755.166 276.077L755.165 276.076Z" fill="#0F7A4F"/>
<path d="M695.62 261.265C691.792 258.067 686.573 254.866 684.823 250.269C685.719 249.311 687.228 248.539 688.598 248.436C688.894 249.285 692.021 256.89 693.059 256.03C701.605 248.901 716.276 255.505 720.993 264.41C726.379 274.586 724.505 289.063 735.378 296.734C720.059 293.885 702.505 293.562 692.184 280.261C688.441 275.449 685.365 263.143 692.347 260.214C699.298 266.582 702.768 270.599 703.984 279.553C704.588 276.961 704.132 274.042 704.484 271.379C709.563 276.099 713.42 281.08 720.041 283.91C714.293 276.659 706.212 270.87 700.432 263.681C703.182 263.596 706 263.218 708.316 262.043C704.307 261.313 699.482 261.356 695.62 261.264L695.62 261.265Z" fill="#0F7A4F"/>
<path d="M663.736 181.546C656.736 182.69 648.415 185.331 641.903 182.929C641.738 181.068 642.35 178.72 643.54 177.152C644.716 177.624 655.71 181.346 655.783 179.424C656.336 163.566 677.2 153.915 691.07 157.136C706.919 160.815 720.44 176.34 738.833 171.774C721.329 185.622 704.377 204.244 680.553 202.963C671.931 202.508 656.019 194.347 659.528 184.09C672.839 182.539 680.364 182.545 690.974 189.585C688.81 186.516 685.295 184.287 682.81 181.425C692.605 180.352 701.516 180.84 710.772 176.344C697.672 175.776 683.91 179.087 670.844 178.613C673.355 175.567 675.621 172.18 676.574 168.593C672.01 172.231 667.487 177.467 663.736 181.546L663.736 181.546Z" fill="#0F7A4F"/>
<path d="M641.65 283.694C643.013 279.926 644.01 275.108 646.977 272.529C647.928 272.96 648.897 273.892 649.342 274.906C648.775 275.358 643.949 279.775 644.874 280.342C652.441 284.896 651.4 297.797 646.032 303.777C639.883 310.616 628.62 313.11 625.799 323.432C623.853 311.04 619.452 297.64 626.618 286.228C629.198 282.091 637.537 276.427 641.574 280.934C638.681 287.919 636.606 291.642 630.268 294.979C632.355 294.735 634.402 293.606 636.475 293.155C634.315 298.269 631.628 302.54 631.267 308.331C635.141 302.014 637.311 294.321 641.14 288.002C641.922 290.061 642.948 292.084 644.427 293.539C643.924 290.291 642.611 286.643 641.65 283.693V283.694Z" fill="#0F7A4F"/>
<path d="M847.592 85.2772C849.944 89.6416 853.57 94.519 853.503 99.3966C852.337 99.9466 850.669 100.1 849.376 99.685C849.413 98.7972 849.306 90.6353 848.04 91.0447C837.604 94.4426 826.541 82.9331 825.448 72.9883C824.201 61.6262 831.175 48.9929 823.984 37.9082C837.008 46.202 853.003 52.9986 857.643 69.0616C859.331 74.8744 857.683 87.3436 850.209 87.4577C846.145 79.0237 844.42 74.0394 846.552 65.3424C845.06 67.5111 844.418 70.3618 843.128 72.6848C840.182 66.4642 838.453 60.4514 833.403 55.39C836.044 64.196 841.36 72.5136 844.047 81.273C841.498 80.3326 838.772 79.6387 836.222 79.8605C839.634 82.018 844.076 83.7695 847.591 85.2765L847.592 85.2772Z" fill="#0F7A4F"/>
<path d="M873.325 93.8447C869.93 97.6819 866.482 102.944 861.744 104.595C860.819 103.627 860.102 102.051 860.052 100.63C860.938 100.365 868.752 97.4052 867.916 96.2894C861.069 87.239 868.369 72.3613 877.564 67.8015C888.082 62.6014 902.646 65.023 910.846 54.0801C907.332 69.7722 906.264 87.8584 892.381 98.0307C887.367 101.725 874.791 104.472 872.118 97.1709C878.843 90.2306 883.06 86.7918 892.159 85.8511C889.564 85.1382 886.598 85.5022 883.925 85.0486C888.898 79.9785 894.103 76.1807 897.249 69.4566C889.68 75.1262 883.481 83.2593 875.954 88.9508C875.998 86.1247 875.733 83.2128 874.655 80.7798C873.728 84.8929 873.565 89.8609 873.325 93.8447H873.325Z" fill="#0F7A4F"/>
<path d="M598.451 140.003C592.253 140.1 584.649 141.32 579.521 138.464C579.726 136.866 580.694 134.954 582.003 133.757C582.922 134.318 591.631 138.834 592.042 137.209C595.456 123.809 615.082 118.205 626.346 122.663C639.219 127.758 647.912 142.599 664.496 141.005C646.949 150.582 629.007 164.295 608.867 160.259C601.577 158.798 589.49 149.907 594.385 141.633C606.059 141.954 612.495 142.895 620.255 150.198C618.972 147.321 616.391 144.983 614.799 142.252C623.357 142.558 630.887 144.079 639.638 141.406C628.547 139.306 616.167 140.412 605.084 138.379C607.79 136.113 610.356 133.517 611.841 130.59C607.254 133.107 602.411 136.994 598.451 140.003L598.451 140.003Z" fill="#0F7A4F"/>
<path d="M581.671 167.704C580.799 165.672 579.379 163.378 579.661 161.152C580.237 160.928 581.023 160.885 581.605 161.098C581.535 161.509 581.152 165.227 581.764 165.068C586.799 163.706 591.336 169.164 591.32 173.723C591.293 178.933 587.384 184.567 590.148 189.759C584.526 185.731 577.446 182.338 576.133 174.921C575.662 172.236 577.086 166.58 580.569 166.662C582.018 170.588 582.548 172.896 581.102 176.822C581.91 175.855 582.359 174.574 583.081 173.537C584.121 176.427 584.607 179.205 586.692 181.606C585.922 177.542 583.893 173.644 583.108 169.597C584.243 170.075 585.471 170.443 586.674 170.391C585.196 169.338 583.224 168.459 581.671 167.704H581.671Z" fill="#0F7A4F"/>
<path d="M537 122.604C536.266 125.904 534.79 129.784 535.737 132.976C536.606 133.109 537.718 132.894 538.489 132.375C538.293 131.793 536.865 126.437 537.777 126.464C545.22 126.704 550.324 117.066 549.214 110.352C547.939 102.677 541.057 95.7281 543.722 87.1074C536.731 95.0119 527.526 102.503 527.455 113.899C527.422 118.027 530.784 125.874 535.696 124.53C536.798 118.235 537.012 114.645 534.012 109.363C535.39 110.497 536.333 112.236 537.6 113.51C538.388 108.881 538.408 104.619 540.773 100.34C540.665 106.603 538.725 113.062 538.589 119.31C540.077 118.204 541.724 117.236 543.434 116.888C541.603 118.964 539.025 120.952 537.001 122.605L537 122.604Z" fill="#0F7A4F"/>
<path d="M547.932 143.964C546.805 146.213 545.841 149.195 543.784 150.433C543.219 150.022 542.664 149.273 542.451 148.55C542.847 148.336 546.201 146.163 545.656 145.672C541.189 141.617 542.738 133.395 546.553 130.29C550.922 126.747 558.222 126.758 560.731 120.475C561.098 128.795 562.955 138.127 557.631 144.501C555.698 146.811 550.03 149.274 547.789 145.766C550.107 141.648 551.679 139.543 555.919 138.292C554.588 138.148 553.207 138.58 551.867 138.571C553.59 135.567 555.583 133.185 556.212 129.479C553.32 133.016 551.415 137.694 548.556 141.239C548.2 139.794 547.694 138.321 546.854 137.171C546.955 139.349 547.527 141.906 547.931 143.963L547.932 143.964Z" fill="#0F7A4F"/>
<path d="M549.433 161.813C547.657 161.401 545.443 161.254 544.044 159.932C544.142 159.412 544.46 158.841 544.865 158.542C545.117 158.795 547.503 160.927 547.657 160.421C548.954 156.202 554.712 155.76 557.835 158.061C561.402 160.693 563.544 166.278 568.336 166.947C563.083 168.87 557.617 172.137 551.947 169.324C549.891 168.311 546.637 164.468 548.23 162.065C551.561 163.018 553.385 163.806 555.44 166.794C555.14 165.744 554.455 164.78 554.062 163.756C556.511 164.479 558.63 165.531 561.202 165.277C558.07 163.766 554.501 163.239 551.372 161.756C552.202 161.197 552.994 160.521 553.485 159.649C552.115 160.156 550.641 161.102 549.433 161.813V161.813Z" fill="#0F7A4F"/>
<path d="M448.233 22.1949C446.623 23.8875 444.35 25.6337 443.837 27.9355C444.334 28.3645 445.114 28.69 445.784 28.6945C445.86 28.264 446.824 24.4525 447.377 24.8381C451.983 27.9922 458.555 24.2477 460.185 19.7438C462.048 14.5974 460.119 7.61779 464.797 3.49414C457.651 5.43615 449.254 6.2314 445.245 13.0726C443.79 15.5499 443.188 21.6473 446.741 22.8243C449.633 19.477 451.009 17.3947 450.958 12.9982C451.431 14.236 451.421 15.6697 451.777 16.9487C453.878 14.4715 455.371 11.91 458.347 10.287C456.104 14.0274 452.64 17.1381 450.377 20.8426C451.699 20.7862 453.08 20.8698 454.277 21.3558C452.404 21.8574 450.081 22.0101 448.234 22.1953L448.233 22.1949Z" fill="#0F7A4F"/>
<path d="M442.853 152.341C444.388 155.637 445.694 159.868 448.513 162.056C449.303 161.655 450.074 160.809 450.363 159.897C449.834 159.515 445.225 155.731 445.976 155.222C452.175 150.998 450.108 139.633 444.87 134.492C438.883 128.617 428.818 126.707 425.417 117.67C424.846 128.655 422.2 140.61 429.487 150.502C432.124 154.087 439.915 158.866 443.038 154.787C439.874 148.682 437.733 145.457 431.895 142.681C433.742 142.843 435.629 143.782 437.482 144.123C435.131 139.658 432.397 135.968 431.563 130.863C435.518 136.339 438.107 143.069 442.015 148.546C442.514 146.715 443.226 144.893 444.401 143.577C444.245 146.448 443.431 149.707 442.853 152.341H442.853Z" fill="#0F7A4F"/>
<path d="M442.159 176.593C444.065 176.23 446.463 176.134 447.849 174.87C447.678 174.361 447.262 173.802 446.787 173.503C446.542 173.743 444.17 175.775 443.937 175.275C442.022 171.134 435.652 170.577 432.489 172.758C428.881 175.251 427.19 180.652 422.011 181.195C427.994 183.186 434.381 186.491 440.283 183.871C442.421 182.927 445.542 179.243 443.508 176.863C439.96 177.726 438.045 178.451 436.142 181.324C436.351 180.314 436.989 179.385 437.299 178.391C434.7 179.041 432.494 180.028 429.641 179.725C432.897 178.321 436.763 177.881 440.022 176.501C439.047 175.936 438.09 175.255 437.444 174.395C439.015 174.922 440.747 175.875 442.158 176.593L442.159 176.593Z" fill="#0F7A4F"/>
<path d="M412.073 21.559C411.915 23.5668 411.37 25.9525 412.196 27.8231C412.719 27.8741 413.366 27.6953 413.781 27.3578C413.615 27.021 412.316 23.8627 412.855 23.8434C417.284 23.6945 419.496 17.7105 418.267 13.7256C416.864 9.17256 412.199 5.27721 413.046 0C409.58 5.01565 404.761 9.87218 405.678 16.7149C406.011 19.1922 408.669 23.7656 411.461 22.7609C411.581 18.9423 411.404 16.7837 409.184 13.7313C410.094 14.3598 410.8 15.3656 411.657 16.0792C411.73 13.2697 411.382 10.7158 412.42 8.05377C412.891 11.8161 412.289 15.7662 412.73 19.5176C413.523 18.7998 414.418 18.1493 415.403 17.8764C414.489 19.188 413.126 20.4833 412.073 21.559Z" fill="#0F7A4F"/>
<path d="M410.841 31.7403C411.987 32.2222 413.313 33.0356 414.461 32.8081C414.533 32.4589 414.483 31.9788 414.325 31.6307C414.118 31.6829 412.188 31.9985 412.224 31.6235C412.508 28.5314 409.256 25.9026 406.859 26.0235C404.121 26.1592 401.483 28.6625 398.522 27.1083C401.115 30.4273 403.504 34.6499 407.516 35.2721C408.965 35.4977 411.827 34.5037 411.485 32.3893C409.298 31.6009 408.038 31.3276 406.096 32.3012C406.534 31.788 407.17 31.4837 407.658 31.0195C406.045 30.4541 404.544 30.2247 403.105 29.0197C405.307 29.3848 407.531 30.5274 409.725 30.9133C409.379 30.2356 409.081 29.4941 409.007 28.7661C409.683 29.6384 410.316 30.8173 410.842 31.7403H410.841Z" fill="#0F7A4F"/>
<path d="M523.088 140.687C524.862 142.491 526.713 144.973 529.024 145.718C529.42 145.255 529.691 144.494 529.652 143.813C529.224 143.694 525.4 142.349 525.75 141.814C528.598 137.435 524.511 130.395 519.966 128.296C514.776 125.906 507.995 127.179 503.643 122.027C505.986 129.483 507.26 138.103 514.262 142.844C516.793 144.567 522.846 145.767 523.807 142.265C520.325 139.005 518.186 137.403 513.842 137.031C515.044 136.669 516.458 136.822 517.703 136.579C515.132 134.201 512.514 132.429 510.737 129.247C514.561 131.892 517.832 135.721 521.632 138.377C521.494 137.027 521.494 135.633 521.906 134.463C522.514 136.416 522.802 138.789 523.088 140.687H523.088Z" fill="#0F7A4F"/>
<path d="M517.048 152.477C520.559 151.656 525.004 151.289 527.48 148.833C527.132 147.905 526.318 146.887 525.404 146.357C524.969 146.824 520.721 150.795 520.253 149.875C516.407 142.295 504.554 141.734 498.851 146.03C492.342 150.951 489.58 161.144 480.025 162.562C491.274 165.823 503.338 171.508 514.095 166.183C517.987 164.256 523.511 157.166 519.569 152.881C513.054 154.752 509.562 156.238 506.238 161.754C506.548 159.835 507.665 158.062 508.171 156.186C503.396 157.596 499.384 159.593 494.067 159.237C500.01 156.38 507.142 155.266 513.079 152.454C511.228 151.474 509.416 150.282 508.162 148.726C511.101 149.591 514.376 151.234 517.048 152.477Z" fill="#0F7A4F"/>
<path d="M527.951 221.504C529.058 220.338 530.612 219.133 530.962 217.552C530.619 217.256 530.082 217.036 529.623 217.037C529.572 217.333 528.919 219.947 528.539 219.687C525.368 217.528 520.864 220.11 519.748 223.207C518.485 226.748 519.814 231.537 516.607 234.376C521.512 233.033 527.279 232.473 530.022 227.765C531.014 226.058 531.418 221.869 528.97 221.065C527.001 223.371 526.056 224.806 526.098 227.83C525.77 226.98 525.776 225.995 525.535 225.114C524.093 226.819 523.071 228.583 521.026 229.701C522.564 227.128 524.937 224.988 526.479 222.436C525.577 222.477 524.629 222.427 523.81 222.094C525.09 221.741 526.679 221.629 527.951 221.504H527.951Z" fill="#0F7A4F"/>
<path d="M491.091 185.101C492.859 186.904 494.719 189.39 497.024 190.134C497.419 189.669 497.691 188.908 497.651 188.232C497.222 188.108 493.408 186.761 493.754 186.231C496.597 181.849 492.508 174.808 487.96 172.711C482.77 170.319 475.997 171.591 471.642 166.443C473.982 173.899 475.265 182.517 482.257 187.26C484.791 188.979 490.85 190.185 491.798 186.682C488.323 183.421 486.187 181.818 481.842 181.445C483.044 181.085 484.462 181.233 485.699 180.993C483.13 178.617 480.516 176.847 478.732 173.662C482.564 176.305 485.831 180.136 489.631 182.791C489.5 181.441 489.497 180.051 489.906 178.878C490.515 180.832 490.803 183.204 491.091 185.101H491.091Z" fill="#0F7A4F"/>
<path d="M232.035 135.257C225.374 139.385 216.622 143.119 212.737 150.114C213.846 151.91 215.921 153.579 217.964 154.139C218.649 152.824 225.421 141.357 226.753 143.051C237.78 156.998 261.75 150.338 271.264 137.192C282.17 122.163 283.23 98.1503 301.752 88.7203C277.8 89.093 251.15 84.7467 231.944 103.458C224.987 110.232 217.039 129.355 226.812 136.061C239.038 127.654 245.381 122.102 249.625 107.896C249.825 112.275 248.364 116.878 248.176 121.3C257.123 115.056 264.295 108.032 275.078 105.272C264.444 115.437 250.655 122.613 239.981 132.678C244.113 133.576 248.275 134.961 251.468 137.513C245.198 137.591 237.917 136.19 232.035 135.257V135.257Z" fill="#0F7A4F"/>
<path d="M443.932 210.384C445.474 213.033 446.914 216.491 449.44 218.106C450.056 217.704 450.627 216.917 450.798 216.124C450.322 215.845 446.177 213.044 446.759 212.549C451.569 208.454 448.912 199.034 444.137 195.132C438.676 190.683 430.147 189.925 426.576 182.578C427.005 191.907 425.79 202.222 432.662 209.963C435.151 212.764 442.026 216.137 444.282 212.425C441.149 207.543 439.101 205.001 434.017 203.147C435.567 203.124 437.22 203.762 438.784 203.899C436.461 200.327 433.886 197.432 432.775 193.197C436.514 197.486 439.219 202.957 442.92 207.248C443.187 205.657 443.63 204.055 444.492 202.844C444.599 205.292 444.191 208.106 443.932 210.383L443.932 210.384Z" fill="#0F7A4F"/>
<path d="M417.946 216.093C418.923 214.657 420.361 213.1 420.478 211.341C420.067 211.082 419.468 210.931 418.986 211.009C418.979 211.336 418.717 214.26 418.269 214.046C414.59 212.242 410.273 215.772 409.602 219.289C408.842 223.312 411.013 228.242 408.103 231.833C413.042 229.569 419.011 228.012 421.136 222.489C421.901 220.489 421.65 215.914 418.952 215.455C417.246 218.266 416.491 219.967 417.018 223.211C416.54 222.344 416.386 221.289 415.984 220.381C414.749 222.454 413.958 224.524 411.991 226.062C413.193 223.044 415.342 220.342 416.554 217.338C415.606 217.537 414.604 217.636 413.684 217.416C414.982 216.825 416.634 216.443 417.945 216.093H417.946Z" fill="#0F7A4F"/>
<path d="M414.991 79.1329C416.259 81.1777 417.461 83.8655 419.468 85.0738C419.948 84.7443 420.376 84.1138 420.492 83.4924C420.117 83.2804 416.806 81.1747 417.25 80.7703C420.919 77.4438 418.632 70.0953 414.808 67.1418C410.436 63.7677 403.748 63.3697 400.791 57.6816C401.333 65.0003 400.613 73.1345 406.166 79.0596C408.172 81.2076 413.628 83.7003 415.309 80.7329C412.75 76.9698 411.089 75.0157 407.069 73.675C408.281 73.6214 409.588 74.0859 410.818 74.1573C408.92 71.4012 406.841 69.1867 405.877 65.879C408.896 69.1659 411.134 73.4021 414.128 76.6973C414.301 75.4364 414.612 74.1672 415.261 73.2007C415.397 75.1151 415.14 77.3406 414.991 79.1329Z" fill="#0F7A4F"/>
<path d="M609.767 99.677C614.942 98.8017 621.453 98.686 625.282 95.3603C624.85 93.9818 623.76 92.4495 622.48 91.5998C621.805 92.2413 615.273 97.5835 614.66 96.2084C609.722 84.9211 592.522 83.0483 583.842 88.7205C573.929 95.2287 569.025 109.685 554.982 110.858C571.079 116.589 588.151 125.874 604.265 119.169C610.106 116.756 618.779 107.021 613.399 100.473C603.752 102.584 598.54 104.422 593.222 112.068C593.839 109.333 595.627 106.873 596.525 104.216C589.448 105.814 583.421 108.326 575.724 107.347C584.62 103.762 595.101 102.802 603.996 99.2673C601.389 97.6972 598.855 95.8157 597.151 93.4594C601.375 94.9596 606.002 97.6398 609.766 99.677H609.767Z" fill="#0F7A4F"/>
<path d="M492.659 62.4068C492.701 67.1352 491.857 72.8683 494.348 76.9235C495.666 76.8384 497.266 76.2035 498.22 75.2774C497.726 74.5498 493.77 67.6738 495.121 67.438C506.253 65.5111 510.518 50.8315 506.549 42.012C502.011 31.9546 489.412 24.5675 490.382 12.002C482.74 24.8877 471.683 37.8951 475.496 53.4467C476.869 59.0856 484.557 68.7469 491.358 65.4279C490.854 56.5199 489.919 51.5591 483.658 45.2742C486.09 46.4021 488.097 48.479 490.409 49.8359C489.982 43.2857 488.54 37.4801 490.589 30.9329C492.6 39.5045 491.928 48.8933 493.87 57.4358C495.703 55.5009 497.808 53.658 500.23 52.6798C498.22 56.0505 495.084 59.5429 492.659 62.4064L492.659 62.4068Z" fill="#0F7A4F"/>
<path d="M555.27 202.059C554.203 203.87 552.561 205.879 552.579 207.96C553.107 208.208 553.854 208.3 554.435 208.144C554.418 207.773 554.489 204.302 555.059 204.506C559.739 206.137 564.731 201.437 565.253 197.239C565.838 192.432 562.735 186.94 565.997 182.361C560.12 185.645 552.919 188.247 550.79 194.995C550.023 197.433 550.731 202.756 554.089 202.94C555.942 199.432 556.729 197.349 555.79 193.616C556.452 194.564 556.734 195.781 557.309 196.795C558.646 194.2 559.436 191.679 561.716 189.62C560.509 193.314 558.103 196.753 556.879 200.421C558.02 200.067 559.253 199.825 560.392 199.961C558.857 200.819 556.853 201.487 555.271 202.06L555.27 202.059Z" fill="#0F7A4F"/>
<path d="M542.363 208.577C543.403 209.743 544.436 211.339 545.937 211.832C546.253 211.535 546.512 211.047 546.546 210.616C546.268 210.538 543.785 209.657 544.073 209.318C546.42 206.535 544.292 202.009 541.383 200.649C538.064 199.086 533.32 199.863 530.83 196.541C531.731 201.322 531.804 206.834 536.132 209.906C537.699 211.017 541.722 211.827 542.696 209.591C540.628 207.485 539.324 206.456 536.39 206.188C537.24 205.965 538.191 206.062 539.068 205.921C537.531 204.389 535.911 203.245 534.996 201.199C537.359 202.912 539.238 205.375 541.58 207.098C541.616 206.232 541.734 205.341 542.129 204.596C542.36 205.851 542.343 207.363 542.363 208.576L542.363 208.577Z" fill="#0F7A4F"/>
<path d="M232.528 63.9884C238.822 65.5196 246.29 68.5184 252.176 66.7926C252.336 65.1166 251.791 62.9437 250.733 61.4216C249.667 61.7811 239.748 64.3732 239.705 62.6217C239.32 48.1761 220.612 37.9327 208.103 39.8751C193.808 42.0941 181.52 55.2112 164.987 49.7571C180.657 63.5708 195.777 81.6895 217.234 82.2273C225.002 82.4227 239.373 76.1518 236.295 66.5896C224.324 64.2201 217.547 63.6925 207.952 69.3442C209.924 66.7075 213.094 64.9212 215.347 62.506C206.555 60.8411 198.53 60.6517 190.227 55.907C202.016 56.3285 214.378 60.3153 226.143 60.8021C223.908 57.8679 221.893 54.6291 221.056 51.303C225.149 54.9285 229.186 60.0073 232.528 63.9892L232.528 63.9884Z" fill="#0F7A4F"/>
<path d="M146.759 87.7825C141.233 87.7178 134.536 86.6558 129.767 89.2796C129.84 90.7356 130.558 92.4795 131.643 93.5552C132.5 93.0521 140.586 88.8812 140.849 90.3598C142.974 102.559 160.094 107.57 170.453 103.45C182.293 98.7372 191.069 85.1495 205.745 86.5178C190.761 77.8619 175.694 65.4539 157.452 69.2412C150.849 70.606 139.439 78.7894 143.243 86.3099C153.674 85.9467 159.481 85.0569 166.921 78.365C165.57 80.9953 163.1 83.1308 161.492 85.6352C169.156 85.3162 175.979 83.889 183.606 86.2778C173.558 88.2591 162.583 87.3115 152.556 89.2199C154.818 91.273 156.932 93.6319 158.047 96.2936C154.137 94.0175 150.086 90.4986 146.759 87.7829V87.7825Z" fill="#0F7A4F"/>
<path d="M326.487 45.8175C333.502 45.1421 342.14 45.5654 347.835 41.5896C347.552 39.7576 346.407 37.6474 344.887 36.4367C343.868 37.1923 334.169 43.583 333.638 41.7487C329.318 26.5914 306.936 22.5996 294.349 29.2368C279.966 36.8287 270.647 55.2373 251.857 55.5177C272.013 64.4204 292.775 78.0598 315.399 70.7582C323.595 68.1253 336.97 56.2019 331.144 47.2013C317.962 49.0915 310.72 51.0184 302.176 60.5088C303.539 56.993 306.384 53.9518 308.091 50.5607C298.412 52.0174 289.952 54.7592 279.959 52.7824C292.439 48.8957 306.48 48.5896 318.945 44.7955C315.804 42.5088 312.807 39.8127 311.038 36.5928C316.299 38.9385 321.904 42.8376 326.486 45.8175H326.487Z" fill="#0F7A4F"/>
<path d="M372.518 51.6339C371.773 46.1805 371.838 39.407 368.574 35.123C367.156 35.4247 365.554 36.4127 364.661 37.652C365.279 38.4174 370.542 45.7255 369.133 46.2168C357.495 50.2373 355.084 67.9104 360.631 77.4662C366.967 88.3857 381.56 94.8819 382.36 109.566C388.649 93.429 398.605 76.6154 392.232 59.2341C389.932 52.9417 380.257 42.9954 373.447 47.9324C375.325 58.1599 377.043 63.741 384.68 70.0096C381.911 69.1025 379.458 67.0021 376.769 65.8104C378.202 73.3206 380.593 79.8198 379.364 87.7092C375.961 78.1212 375.285 67.159 371.96 57.5737C370.272 60.1299 368.274 62.5818 365.831 64.1054C367.491 59.8914 370.345 55.3448 372.518 51.6335V51.6339Z" fill="#0F7A4F"/>
<path d="M755.363 101.435C751.348 106.834 745.525 112.67 744.65 119.255C746.122 120.207 748.313 120.735 750.14 120.43C750.252 119.209 752 108.292 753.638 109.089C766.967 115.652 784.059 102.326 787.494 89.207C791.404 74.1948 784.535 55.8969 796.374 42.4121C777.257 51.0343 754.458 57.086 745.079 77.75C741.666 85.2187 741.417 102.268 751.426 103.854C758.542 93.3238 761.836 86.9653 760.677 74.8971C762.263 78.0856 762.564 82.0331 763.834 85.3899C769.014 77.6207 772.513 69.8761 780.281 64.0539C775.004 75.3518 766.236 85.5048 760.922 96.7524C764.522 95.967 768.3 95.5603 771.692 96.3317C766.68 98.5995 760.379 100.09 755.363 101.434V101.435Z" fill="#0F7A4F"/>
<path d="M632.036 55.222C628.683 57.029 624.302 58.6388 622.288 61.816C622.809 62.654 623.822 63.4628 624.835 63.749C625.183 63.1563 628.676 57.9486 629.319 58.7499C634.622 65.3682 646.581 62.64 651.472 56.7006C657.049 49.9104 657.862 38.8102 667.163 34.7175C655.28 34.5376 642.115 32.1307 632.37 40.5099C628.845 43.5446 624.666 52.2689 629.435 55.5175C635.603 51.8055 638.807 49.3306 641.083 42.8219C641.134 44.8547 640.351 46.9622 640.205 49.0032C644.717 46.2422 648.358 43.1065 653.738 41.9874C648.34 46.5411 641.415 49.6439 636.007 54.1436C638.043 54.6233 640.093 55.327 641.645 56.5562C638.529 56.4988 634.937 55.7443 632.036 55.2216L632.036 55.222Z" fill="#0F7A4F"/>
<path d="M671.253 71.886C663.614 73.6307 654.124 74.3258 648.181 79.6831C648.648 81.7423 650.069 83.9935 651.821 85.1852C652.895 84.1628 663.019 75.5122 663.731 77.5461C669.64 94.3151 694.474 95.7858 707.737 86.4344C722.926 75.7534 731.714 53.3814 752.293 50.4657C729.514 43.053 705.713 30.3014 681.477 41.7751C672.7 45.9282 658.982 61.4408 666.052 70.9528C680.343 66.9637 688.144 63.768 696.765 51.7055C695.534 55.9134 692.659 59.7936 691.049 63.9161C701.536 60.9098 710.599 56.5915 721.695 57.4759C708.339 63.6448 692.968 65.9625 679.607 72.0225C683.225 74.212 686.713 76.8707 688.906 80.3204C682.949 78.361 676.516 74.675 671.255 71.886H671.253Z" fill="#0F7A4F"/>
<path d="M582.644 61.1461C588.103 64.6355 594.194 69.8934 600.322 70.169C601.017 68.6355 601.206 66.4033 600.699 64.6204C599.574 64.6147 589.35 63.8505 589.877 62.1802C594.197 48.39 579.82 32.634 567.357 30.416C553.115 27.8802 537.238 36.3052 523.366 25.7852C533.712 43.9337 542.14 65.9754 562.264 73.4414C569.549 76.1447 585.177 74.872 585.365 64.8283C574.809 58.7059 568.569 56.0095 557.66 58.2448C560.38 56.3901 563.959 55.7279 566.873 54.1733C559.096 49.7477 551.565 46.9669 545.249 39.7867C556.265 44.0074 566.667 51.7868 577.638 56.062C576.475 52.5616 575.619 48.8443 575.905 45.4267C578.601 50.1827 580.774 56.2967 582.644 61.1465L582.644 61.1461Z" fill="#0F7A4F"/>
<path d="M617.614 266.279C624.212 263.804 632.664 261.969 637.13 256.651C636.382 254.955 634.727 253.215 632.946 252.44C632.157 253.435 624.451 262.125 623.463 260.492C615.353 246.977 592.703 248.936 582.272 258.614C570.354 269.682 566.138 289.879 548.065 295.03C569.842 298.392 593.434 306.171 613.385 293.243C620.615 288.572 630.435 273.584 622.471 266.405C610.233 271.654 603.739 275.396 597.954 286.78C598.356 283.031 600.314 279.355 601.082 275.637C592.113 279.557 584.656 284.403 574.492 285.089C585.535 278.095 599.014 274.152 610.066 267.25C606.439 265.857 602.844 264.032 600.3 261.383C605.989 262.282 612.415 264.591 617.614 266.279L617.614 266.279Z" fill="#0F7A4F"/>
<path fill-rule="evenodd" clip-rule="evenodd" d="M346.693 653.559C345.034 652.18 343.721 650.345 342.494 648.154C339.65 643.073 330.149 637.778 325.444 634.228C321.873 631.533 317.235 627.9 314.101 624.626L300.811 612.752C291.398 605.65 286.842 594.798 279.4 586.261C278.624 585.461 277.935 584.798 277.224 583.886C276.775 583.31 276.247 582.774 275.766 582.222C269.03 574.49 266.053 565.746 269.942 556.649C265.059 555.053 259.116 553.993 254.878 553.551C252.404 553.293 250.64 552.762 248.69 551.879C244.654 552.341 240.78 553.118 236.531 553.028C231.097 552.913 226.903 551.586 224.093 548.222C221.353 546.815 219.604 544.701 218.074 541.99C216.908 539.923 216.627 538.445 215.921 536.42L214.804 534.252V525.844L218.686 520.036C219.973 517.062 220.547 515.862 223.443 513.214C226.155 510.734 229.322 508.572 232.446 506.637C234.796 505.18 236.789 502.849 239.37 501.192C241.619 499.747 243.965 498.596 246.284 497.351C245.282 497.36 244.287 497.354 243.308 497.312C239.641 497.156 235.924 497.246 232.231 497.104C226.182 496.871 220.05 496.338 214.113 495.117C198.85 491.977 191.384 479.221 185.992 465.932C182.352 456.963 183.479 445.602 188.662 437.416L203.55 413.901L209.333 441.123C209.403 441.452 209.474 441.782 209.547 442.113C210.596 439.182 212.179 436.482 214.56 434.357C216.011 433.061 217.72 432.058 219.549 431.42C220.114 429.745 220.731 428.118 221.359 426.601C222.18 424.616 223.132 422.513 224.306 420.714C225.969 418.163 228.208 416.239 231.193 415.346C238.748 413.083 245.84 418.762 246.04 426.408C246.138 430.125 244.593 433.833 244.285 437.599C243.972 441.425 244.773 444.738 246.785 448.022C246.993 448.362 247.29 448.84 247.643 449.386L263.609 410.195L266.868 448.837C269.72 444.823 271.841 439.889 272.603 435.939C274.908 424 272.751 398.768 268.059 387.693C263.837 377.729 267.626 356.559 269.627 345.805C270.873 339.111 272.301 332.413 273.943 325.805C274.984 321.615 276.365 314.996 279.265 311.763C284.719 305.685 294.342 306.925 298.198 314.048C299.066 315.651 299.529 317.348 299.809 319.135C300.17 321.447 300.27 323.897 300.319 326.236C300.416 330.945 300.336 336.226 299.713 340.874C298.489 350.012 293.78 365.585 296.42 374.518C298.063 380.076 299.373 385.712 300.883 391.303C301.411 393.257 302.595 397.821 303.691 399.85C304.552 400.028 306.981 398.909 307.68 398.548C312.354 396.135 331.598 389.82 334.238 385.655C335.419 380.51 335.045 371.813 335.051 366.507C335.06 359.05 334.922 348.572 338.143 341.801C339.197 339.585 340.522 337.592 342.447 336.029C347.295 332.093 354.198 332.417 358.582 336.883C361.442 339.796 362.382 343.552 362.772 347.463C363.168 351.429 363.193 357.076 362.493 361.009C362.335 362.921 362.755 366.073 362.962 367.98C363.323 371.306 363.793 374.626 364.125 377.953C364.276 379.463 364.266 380.693 364.167 381.917C364.723 382.146 365.333 382.375 365.982 382.602C366.388 367.723 366.189 352.626 366.05 337.909C365.965 328.953 365.835 319.998 365.691 311.042C365.622 306.739 365.357 301.982 365.539 297.704C366.075 285.093 382.027 281.677 387.758 293.026C388.756 295.002 389.496 297.301 390.143 299.417C391.783 304.78 393.154 310.488 394.138 316.013C394.916 320.382 395.118 325.496 395.395 329.938C395.854 337.298 396.215 344.667 396.571 352.032C397.187 364.757 397.716 377.505 398.419 390.231C400.558 390.585 402.656 390.864 404.352 390.938C408.242 389.637 412.181 390.615 415.04 392.918C418.135 391.08 422.128 388.48 422.776 386.996C422.897 386.072 421.951 383.367 421.649 382.555C418.526 374.156 419.285 362.638 420.748 353.828C421.405 349.868 422.302 345.745 423.61 341.947C424.226 340.16 424.967 338.365 425.959 336.752C428.878 332.009 434.12 329.323 439.714 330.838L449.437 333.47L447.969 343.435C446.872 350.887 447.719 361.2 448.464 368.793C448.849 372.715 449.693 381.085 450.968 386.366C455.378 387.907 459.928 389.304 464.351 390.522C464.952 390.178 465.757 389.553 466.198 389.238C468.652 387.489 470.985 386.059 473.935 385.247C484.533 382.331 492.952 391.201 490.558 401.584C489.329 406.915 485.626 411.802 481.134 414.847C471.659 421.27 458.536 423.403 447.432 420.974C443.253 420.059 440.172 418.94 437.164 416.799C434.353 418.271 430.268 421.189 428.457 422.419C422.851 426.23 416.987 430.318 410.792 433.094C405.191 435.603 400.463 436.622 394.446 437.315C391.19 437.69 388.964 437.996 385.968 439.46C382.299 441.252 377.53 446.539 374.79 449.561C369.889 454.966 365.053 460.843 359.447 465.521C354.254 469.854 346.116 473.973 339.916 477.125C340.207 481.736 339.121 486.678 338.399 490.972C337.87 494.126 336.972 497.132 335.599 499.826C337.358 502.183 339.345 504.484 341.104 506.772C342.182 508.176 343.31 509.608 344.482 510.933C345.854 512.484 347.114 514.118 348.473 515.674C354.609 522.695 354.418 524.213 363.404 527.578C366.496 528.736 367.037 529.151 370.095 528.194C376.148 526.302 380.608 526.532 386.462 525.501C393.171 524.319 397.888 523.149 404.93 523.948C415.028 525.092 424.575 528.208 434.428 530.444C443.219 532.441 454.199 531.271 463.178 530.549C474.572 529.634 486.161 528.854 497.594 529.131C498.894 529.162 501.839 529.495 503.013 529.309C507.162 528.264 510.811 527.31 515.162 528.495C518.24 529.333 520.853 531.2 523.651 532.652C529.877 535.884 536.388 537.522 542.392 541.541C546.55 544.323 551.424 547.673 554.542 551.565C555.42 552.662 556.183 553.999 557.04 555.063L557.132 555.138L562.58 560.752L563.157 561.619C569.088 570.53 569.337 581.081 567.407 591.288C565.999 598.731 563.426 605.436 561.527 612.657C559.355 620.913 556.493 630.248 556.31 638.828C556.258 641.256 556.194 644.604 557.266 646.875C558.753 650.023 562.047 654.102 564.038 657.079C566.296 660.457 568.48 663.043 569.046 667.379C569.861 673.62 568.521 681.294 569.626 687.356C570.094 688.868 570.508 690.028 570.718 691.683C571.396 697.032 570.191 702.309 570.954 708.025C571.714 713.724 571.759 719.313 572.077 725.032C572.221 727.613 572.214 732.463 572.782 734.932C572.963 735.714 573.284 736.572 573.532 737.339C574.312 739.761 575.026 742.194 575.696 744.649C576.211 746.535 576.513 748.555 577.036 750.421L577.782 752.114V762.026L571.496 768.62C570.889 771.639 569.598 774.287 567.459 776.591C564.315 779.978 559.747 782.634 555.122 783.177C551.048 783.656 548.116 783.07 545.145 781.002C544.411 780.797 543.687 780.537 542.936 780.207L537.704 777.909L536.439 772.337C535.579 768.549 536.01 765.299 537.543 761.804C537.886 761.022 538.086 760.659 538.211 759.814C538.543 757.585 539.175 755.625 539.913 753.516C540.102 752.975 540.407 752.19 540.472 751.616C540.888 747.942 540.501 744.493 541.131 740.628C541.624 737.602 541.662 735.793 541.454 732.729C541.036 726.549 540.291 720.224 539.463 714.088C538.959 710.36 538.031 702.521 536.696 698.839C536.639 698.766 536.583 698.694 536.526 698.622C535.563 700.518 534.631 702.404 533.904 704.277C531.95 709.309 530.591 714.638 528.908 719.773C527.14 725.168 525.422 730.578 523.722 735.993C522.461 740.006 521.382 744.186 520.39 748.272C519.565 751.671 518.39 756.217 518.151 759.682C518.016 761.634 518.037 763.455 517.761 765.422C516.932 771.332 513.831 776.56 507.772 778.307L504.763 779.174C500.615 782.522 495.52 783.788 490.053 783.341C486.266 783.032 483.613 781.918 481.203 779.507C481.041 779.419 480.881 779.328 480.72 779.234L476.119 776.538L475.261 771.274C474.347 765.665 477.035 760.765 480.189 756.404C481.599 754.454 483.496 752.327 484.727 750.331C486.325 747.742 488.109 739.849 489.152 736.68C492.532 726.403 495.021 714.417 495.47 703.593C495.865 694.078 489.205 689.15 483.739 682.403C479.797 677.538 476.744 672.223 473.885 666.676C472.883 664.732 471.906 662.74 470.897 660.765C468.326 661.392 465.757 662.048 463.189 662.561C456.939 663.811 450.644 664.536 444.277 664.796C438.173 665.045 434.009 664.382 428.144 663.637C425.033 663.241 421.698 663.288 418.385 663.535C417.345 670.312 415.98 677.184 414.395 683.615C413.459 687.409 412.114 691.651 411.72 695.518C411.189 700.726 410.598 706.028 409.355 711.119C408.515 714.559 409.213 718.709 409.571 722.169C410.1 727.287 410.378 732.423 410.761 737.552C411.101 742.099 411.623 746.537 412.403 751.028C413.562 757.701 416.765 764.53 413.556 771.361L411.386 775.978L408.537 776.816C407.697 782.213 404.33 786.53 399.084 788.497C397.008 789.275 395.499 789.312 393.558 789.754L391.856 790.453L379.011 790.634L376.406 788.455L372.419 787.751C369.925 788.301 367.326 788.421 364.798 788.219C360.516 787.877 356.946 786.255 354.425 783.487C348.9 780.348 346.333 773.611 350.014 766.91C351.058 765.01 352.255 763.726 353.663 762.277C356.711 756.457 358.318 734.125 358.316 727.332C358.287 725.725 357.714 723.246 357.411 721.63C356.767 718.198 356.108 714.763 355.728 711.289C355.008 704.708 355.684 700.56 356.658 694.3C357.608 688.192 357.037 682.076 356.213 675.982C354.917 666.4 353.849 666.566 349.406 658.067C348.999 657.288 348.344 656.585 347.861 655.816C347.392 655.07 347.008 654.32 346.692 653.56L346.693 653.559ZM359.909 412.856C359.196 412.643 358.522 412.408 357.9 412.149C357.469 411.97 356.974 411.746 356.477 411.536C348.637 415.896 339.868 420.169 331.457 423.98C330.922 427.833 330.831 435.612 331 442.785C331.293 442.658 331.587 442.533 331.884 442.412C337.344 440.047 351.873 423.482 359.909 412.856ZM301.862 451.739C301.456 452.547 301.055 453.34 300.664 454.114C299.848 455.727 298.902 457.632 297.875 459.627C299.413 458.823 300.832 458.023 302.018 457.275C301.917 455.441 301.875 453.548 301.862 451.739Z" fill="#FEFEFE"/>
<path fill-rule="evenodd" clip-rule="evenodd" d="M226.143 529.283V531.501C226.894 532.957 227.085 534.883 227.951 536.418C229.251 538.723 229.239 538.092 231.924 538.75C232.66 541.776 233.51 541.623 236.772 541.692C241.181 541.786 249.674 540.177 250.607 540.361C252.343 540.705 253.004 541.956 256.053 542.273C263.72 543.072 273.834 545.328 279.963 548.546C284.164 550.752 284.221 554.793 281.614 558.804C277.546 565.065 280.094 569.928 284.316 574.774C285.211 575.802 285.418 575.954 286.166 576.913C286.816 577.747 287.234 577.994 287.936 578.798C294.236 586.025 300.685 598.65 307.982 603.952L322.017 616.493C323.928 618.559 330.052 623.5 332.274 625.176C339.218 630.416 347.992 634.763 352.389 642.614C354.464 646.322 353.849 644.066 356.513 645.789C356.965 650.594 357.616 649.291 359.456 652.811C364.575 662.602 365.834 662.501 367.451 674.46C370.577 697.574 365.577 697.027 367.002 710.054C367.69 716.342 369.655 723.717 369.656 727.321C369.659 736.204 367.801 762.712 362.568 769.367C361.95 770.152 356.856 774.338 361.938 773.954C362.415 775.977 363.338 776.726 365.701 776.914C367.764 777.079 369.948 776.893 371.653 776.141C374.675 774.808 375.039 771.694 375.64 767.228C377.428 767.838 377.288 768.795 378.56 770.074C380.447 766.924 377.956 762.123 378.343 757.565C378.744 752.834 378.398 748.033 378.459 743.275C378.581 733.653 379.176 726.239 380.588 716.972C382.911 701.71 383.03 706.731 382.804 691.11C382.551 673.488 381.44 681.977 385.161 665.299C387.396 674.483 387.353 685.787 385.749 695.179C383.3 709.527 386.861 707.964 388.22 723.145C388.761 729.19 389.913 749.439 389.185 754.387C386.187 774.791 379.184 771.295 380.234 777.614C381.371 777.815 381.321 777.605 382.256 777.206C382.287 778.784 382.034 778.376 383.061 779.235L389.545 779.144C392.743 777.831 397.109 779.087 397.394 774.527C397.667 770.171 397.045 771.8 398.619 766.54L399.618 764.424C402.276 764.832 401.769 766.987 403.295 766.538C404.39 764.209 401.749 755.937 401.233 752.966C400.372 748.004 399.844 743.591 399.456 738.395C399.084 733.407 398.807 728.281 398.295 723.334C397.751 718.066 397.076 713.62 398.342 708.43C399.416 704.032 399.979 698.912 400.442 694.367C400.883 690.04 402.322 685.226 403.388 680.9C405.347 672.954 407.391 661.613 408.311 653.256C432.032 650.076 429.461 654.052 443.817 653.466C449.623 653.229 455.253 652.584 460.969 651.442C466.237 650.389 471.633 648.761 476.731 647.967C481.968 656.295 485.514 666.578 492.551 675.265C498.295 682.355 507.399 689.612 506.8 704.063C506.311 715.833 503.539 729.228 499.924 740.221C498.38 744.915 496.771 752.408 494.378 756.285C492.126 759.936 485.938 766.283 486.453 769.451C488.202 770.476 487.228 769.059 488.673 770.866C489.347 771.705 489.362 771.908 490.979 772.04C499.273 772.718 499.9 766.361 502.877 763.356C504.088 764.879 503.756 766.243 504.633 767.413C506.933 766.749 506.668 761.407 506.841 758.902C507.252 752.949 511.162 738.149 512.905 732.597C514.625 727.124 516.385 721.581 518.135 716.243C519.903 710.846 521.329 705.343 523.335 700.175C525.007 695.867 529.338 688.161 530.104 685.31C531.156 681.392 527.68 680.385 525.779 678.921C523.981 677.537 522.575 674.802 521.396 672.671C518.718 667.831 515.139 665.259 512.769 659.687C509.773 652.645 509.766 649.738 510.49 641.761C511.344 642.607 511.907 644.383 512.48 645.689L516.581 652.902C517.383 654.033 518.158 654.786 519.003 655.789C521.995 659.342 526.049 662.838 529.705 667.032L534.921 672.773C545.944 686.177 541.348 685.692 544.66 690.614C545.344 691.63 546.268 692.459 546.864 693.747C549.575 699.592 552.228 723.989 552.768 731.965C553.056 736.223 552.997 738.313 552.323 742.452C551.725 746.123 552.144 749.317 551.739 752.894C551.37 756.152 549.884 758.418 549.427 761.485C548.694 766.411 546.804 766.778 547.497 769.827C549.219 770.584 549.485 769.903 550.719 770.963C551.735 771.837 551.694 772.165 553.8 771.918C555.929 771.667 558.123 769.985 559.149 768.878C560.872 767.023 560.277 765.162 561.014 762.446C561.62 760.208 562.171 758.125 562.745 755.936C564.765 756.595 564.524 757.319 565.828 758.135L566.444 757.489V754.501C566.019 753.534 565.168 749.138 564.759 747.636C561.173 734.504 561.612 741.004 560.757 725.664C560.439 719.953 560.455 715.063 559.716 709.525C558.635 701.419 559.926 696.714 559.47 693.11C559.31 691.855 558.769 690.937 558.531 689.706C557.398 683.817 558.261 672.348 557.804 668.848C557.609 667.353 555.443 664.625 554.612 663.383C547.468 652.697 544.705 651.223 544.975 638.587C545.182 628.875 548.234 618.623 550.562 609.773C553.506 598.584 561.779 580.012 553.719 567.902L549.461 563.515C548.16 562.456 546.761 559.987 545.693 558.655C543.644 556.096 539.2 553.049 536.087 550.966C531.17 547.675 524.231 545.729 518.428 542.717C511.322 539.028 513.117 538.459 505.731 540.318C503.142 540.97 500.087 540.535 497.32 540.468C486.569 540.208 474.66 541.003 464.087 541.853C453.511 542.702 441.998 543.792 431.918 541.503C422.882 539.452 412.926 536.268 403.654 535.216C397.828 534.556 393.898 535.706 388.43 536.669C382.665 537.685 379.226 537.222 373.48 539.018C367.639 540.845 364.857 540.231 359.429 538.198C347.651 533.787 346.688 530.863 339.937 523.137C338.492 521.484 337.473 520.123 335.99 518.447C334.846 517.153 333.264 515.179 332.115 513.685C329.986 510.916 326.53 506.822 324.608 503.909C323.269 501.882 321.919 500.976 321.364 498.882C324.546 497.321 326.372 494.14 327.218 489.097C327.69 486.291 329.713 477.166 327.835 475.387C325.681 473.737 317.798 482.995 311.635 485.226L307.972 479.813C324.804 472.214 346.162 461.841 352.183 456.817C361.399 449.129 371.253 434.032 380.991 429.275C390.729 424.517 395.284 427.619 406.158 422.749C417.032 417.878 430.816 405.373 437.303 404.841C443.791 404.308 439.768 407.693 449.856 409.9C459.945 412.107 469.613 408.961 474.772 405.464C479.931 401.966 481.523 394.922 476.945 396.182C472.366 397.442 469.194 403.611 461.527 401.507C453.858 399.403 445.895 396.64 442.555 395.366C439.215 394.092 434.565 356.635 436.752 341.785C434.07 341.059 428.077 367.309 432.278 378.606C436.478 389.904 434.307 395.5 417.104 404.789C399.901 414.078 390.788 419.347 388.938 413.451C388.621 412.441 388.29 409.276 387.953 404.671C391.624 404.934 394.647 405.17 396.135 405.421C401.288 406.288 410.42 400.192 407.328 402.047C406.025 402.829 397.462 401.675 387.619 399.708C386.073 375.053 384.387 325.929 382.976 318.003C381.149 307.743 377.04 294.155 376.869 298.188C376.73 301.443 378.447 367.536 376.717 397.304C366.611 394.864 357.408 392.005 355.303 389.889C350.367 384.923 353.375 384.402 352.844 379.081C352.313 373.761 350.614 362.878 351.314 359.124C352.015 355.37 352.064 338.939 348.384 346.674C344.703 354.41 347.813 377.894 345.196 388.593C342.578 399.293 320.621 404.631 312.884 408.625C305.146 412.621 299.674 411.632 295.618 407.892C291.56 404.151 289.14 389.886 285.548 377.733C281.957 365.58 287.685 345.283 288.477 339.37C289.268 333.458 289.296 317.567 287.707 319.337C286.119 321.107 273.884 372.372 278.502 383.271C283.119 394.171 286.927 421.577 283.738 438.09C280.549 454.603 268.486 463.711 266.503 464.6C265.394 465.097 261.443 465.708 257.728 465.982C256.577 461.756 256.284 458.234 256.284 458.234C256.284 458.234 254.649 462.226 253.733 466.122C252.482 466.1 251.464 465.995 250.885 465.774C248.331 464.801 245.002 466.821 237.117 453.945C229.232 441.069 234.79 429.846 234.707 426.707C234.625 423.568 229.242 435.772 228.403 442.763C227.565 449.755 242.653 468.667 245.115 471.799C246.129 473.09 249.352 473.391 252.972 473.459C251.411 475.22 245.589 474.103 245.589 474.103C245.589 474.103 236.317 475.487 231.024 470.735C225.732 465.985 224.489 442.013 224.489 442.013C224.489 442.013 220.013 440.852 219.055 451.964C218.098 463.074 223.662 472.847 225.355 474.858C227.046 476.869 222.354 476.993 218.355 476.015C214.356 475.037 205.871 469.343 203.135 461.468C200.399 453.595 198.244 443.483 198.244 443.483C198.244 443.483 192.698 452.298 196.501 461.671C200.304 471.045 205.505 481.771 216.4 484.013C227.295 486.254 239.757 485.814 243.791 485.985C247.825 486.156 254.641 485.476 260.73 486.706C265.014 487.57 271.879 489.824 279.002 489.823C278.857 490.721 278.632 491.459 277.71 492.103C274.21 494.547 265.948 498.536 261.475 501.119C258.715 502.711 256.568 504.554 253.856 506.12C251.117 507.7 248.094 509.067 245.501 510.732C242.766 512.489 241.557 514.332 238.42 516.276C235.932 517.817 233.159 519.696 231.096 521.583C229.284 523.239 229.796 522.927 228.684 525.485L226.144 529.286L226.143 529.283ZM376.223 403.794C375.856 407.449 375.394 410.004 374.815 411.069C370.257 419.44 346.55 448.655 336.187 452.901C325.825 457.147 321.797 465.096 320.734 459.031C319.673 452.968 318.731 423.482 321.166 418.484C321.689 417.411 321.826 416.523 321.695 415.917C331.912 411.434 347.283 403.675 351.021 401.596C355.893 398.884 357.052 399.513 362.258 401.681C364.497 402.613 370.126 403.274 376.223 403.794ZM317.769 417.577C316.781 419.195 315.797 421.657 315.064 425.174C312.424 437.83 313.179 458.063 313.849 461.325C314.519 464.586 293.032 475.793 283.431 477.325C276.33 478.455 280.251 466.559 281.512 465.019C284.59 461.258 296.611 437.877 299.235 429.556C301.86 421.235 307.059 421.024 314.287 418.844C315.197 418.569 316.381 418.133 317.769 417.576L317.769 417.577Z" fill="#997533"/>
</svg>
