<svg xmlns="http://www.w3.org/2000/svg">

  <symbol id="home-page" fill="none">
    <path d="M13.2802 32H15.9725C16.5248 32 16.9725 31.5523 16.9725 31V25.7411C16.9725 25.0406 17.2714 24.3733 17.794 23.9068C18.96 22.866 20.7213 22.866 21.8873 23.9068C22.41 24.3733 22.7088 25.0406 22.7088 25.7411V31C22.7088 31.5523 23.1565 32 23.7088 32H26.7198C28.3766 32 29.7198 30.6569 29.7198 29V22.08C31.4525 22.08 32.3021 19.969 31.0524 18.7687L21.2414 9.34538C20.4612 8.59605 19.2267 8.60283 18.4548 9.36068L8.91098 18.731C7.66236 19.9569 8.53038 22.08 10.2802 22.08V29C10.2802 30.6569 11.6234 32 13.2802 32Z" fill="currentColor" stroke="currentColor" />
  </symbol>
 
  <symbol id="vouchers-page" fill="none">
    <path d="M19.8973 34C17.0157 33.6068 15.9186 32.6751 15.2932 29.1874C13.7878 25.1389 12.9064 22.8295 13.1517 20.6317C10.9671 22.128 9.60128 21.7243 6.94145 19.0275C8.37555 17.3932 9.13906 16.3225 11.0102 16.3538C10.6343 15.9468 10.3787 15.6105 9.72536 14.5357C8.59259 14.3051 6.64381 14.6478 6.19194 13.2524C5.91683 12.4029 5.84352 11.4485 6.62023 11.0065C7.39011 10.5685 8.03496 11.2439 8.7617 11.7551C8.73959 9.34343 8.7617 7.37033 10.1536 6.19392C10.8545 5.60164 12.3761 6.47285 12.188 7.37033C11.6527 9.92505 10.8796 10.5165 11.6527 13.2524C13.0823 15.0962 13.9691 15.7901 15.7215 16.3538C17.123 15.2337 18.0312 14.8923 19.8973 14.8566C21.7926 14.8812 22.7897 15.1592 24.3944 16.3538C25.9237 15.7257 26.7636 15.2175 28.142 13.2524C28.9248 11.4735 28.142 9.81811 27.8207 7.37033C27.7014 6.46118 28.9972 5.86755 29.8551 6.19392C30.9481 6.60971 31.373 9.16216 31.0329 11.7551C32.0077 11.155 32.34 11.1015 33.0673 11.0065C33.9991 10.8849 34.1108 12.3326 33.9239 13.2524C33.6241 14.7282 31.8788 14.244 30.2834 14.5357C29.8704 15.3965 29.5567 15.7842 28.8915 16.3538C30.3725 16.0479 33.0673 19.0275 33.0673 19.0275C33.0673 19.0275 29.3389 22.1866 26.8571 20.6317C27.0421 23.3613 26.226 25.4425 24.7156 29.1874C24.2873 32.3958 23.3114 33.7758 19.8973 34Z"  fill="currentColor" stroke="currentColor"/>
  </symbol>

  <symbol id="hunting-societies-page" fill="none">
    <path d="M19.4795 24.5195C17.8965 26.2839 18.2812 29.088 20.2801 30.3474L20.2807 30.3478C22.0004 31.4277 23.9801 32 26 32C28.0199 32 29.9996 31.4277 31.7193 30.3478L31.7199 30.3474C33.7187 29.088 34.1035 26.284 32.5206 24.5196M19.4795 24.5195C19.4797 24.5193 19.4798 24.5192 19.4799 24.519L19.852 24.853L19.4794 24.5196C19.4795 24.5195 19.4795 24.5195 19.4795 24.5195ZM19.4795 24.5195C20.3064 23.5954 21.3132 22.8571 22.4361 22.3521C23.5589 21.8473 24.7727 21.587 26 21.5884C27.2273 21.587 28.4411 21.8473 29.5639 22.3521C30.6868 22.8571 31.6937 23.5955 32.5206 24.5196M32.5206 24.5196C32.5204 24.5194 32.5202 24.5192 32.5201 24.519L32.148 24.853L32.5206 24.5196ZM30.5835 16.6767V16.6767C30.5835 16.0641 30.4656 15.4573 30.2361 14.8907C30.0067 14.3242 29.6701 13.8086 29.2451 13.3739C28.82 12.9391 28.3147 12.5936 27.7578 12.3576C27.2009 12.1217 26.6036 12 26 12H26C25.091 12 24.2033 12.2757 23.4493 12.7909C22.6955 13.306 22.1096 14.037 21.764 14.8901C21.4185 15.7431 21.3282 16.6812 21.5042 17.586C21.6801 18.4909 22.1148 19.3237 22.7548 19.9784C23.395 20.6332 24.2121 21.0804 25.1033 21.2618C25.9946 21.4432 26.9184 21.3501 27.7573 20.9948C28.5961 20.6396 29.3112 20.0388 29.8136 19.2701C30.3158 18.5015 30.5833 17.599 30.5835 16.6767Z"  fill="currentColor" stroke="white"/>
    <path d="M14 19.6071C12.603 19.6054 11.2223 19.9192 9.94632 20.5269C8.67043 21.1346 7.52856 22.0222 6.59205 23.1307C4.83125 25.2091 5.24975 28.5134 7.49002 30.0085L7.49065 30.0089C9.4456 31.3093 11.6988 32 14 32C16.3012 32 18.5544 31.3093 20.5093 30.0089L20.51 30.0085C22.7502 28.5135 23.1687 25.2094 21.4082 23.131C20.4716 22.0223 19.3297 21.1346 18.0537 20.5269C16.7777 19.9192 15.397 19.6054 14 19.6071ZM14 19.6071C13.9998 19.6071 13.9996 19.6071 13.9994 19.6071L14 20.1071L14.0006 19.6071C14.0004 19.6071 14.0002 19.6071 14 19.6071ZM19.1668 13.556V13.5559C19.1669 12.8317 19.0352 12.1137 18.7787 11.4427C18.5221 10.7716 18.1451 10.1594 17.6675 9.64185C17.1897 9.12427 16.6204 8.71135 15.9907 8.42879C15.361 8.14617 14.6844 8.00005 14 8H14C12.9688 8 11.9645 8.33145 11.1142 8.94687C10.2644 9.56188 9.60782 10.4317 9.22148 11.4419C8.8352 12.452 8.7346 13.5615 8.93104 14.6315C9.12749 15.7016 9.61327 16.6896 10.3324 17.4687C11.052 18.2483 11.9738 18.7843 12.9838 19.002C13.9942 19.2199 15.0411 19.1078 15.9901 18.6821C16.9385 18.2567 17.7426 17.5392 18.3055 16.6268C18.8683 15.7147 19.1667 14.6462 19.1668 13.556Z"  fill="currentColor" stroke="white"/>
  </symbol>
  
  <symbol id="plot-descriptions-page" fill="none">
    <circle cx="20.0109" cy="20.0003" r="9.64286"  fill="currentColor"/>
    <circle cx="20.0108" cy="19.9994" r="3.21429" fill="white"/>
    <path d="M20.0109 6.5V14.6" stroke="currentColor" stroke-width="3" stroke-linecap="round"/>
    <path d="M20.0109 25.4004V33.5004" stroke="currentColor" stroke-width="3" stroke-linecap="round"/>
    <path d="M25.0109 20.5L33.5109 20.6428" stroke="currentColor" stroke-width="3" stroke-linecap="round"/>
    <path d="M6.48926 21.0723H15.0324" stroke="currentColor" stroke-width="3" stroke-linecap="round"/>
  </symbol>

  <symbol id="map-page" fill="none">
    <path d="M9.4428 19.5877L7.14268 28.7882C6.95791 29.5272 7.63439 30.1932 8.37048 29.9969L14.8915 28.258C15.0926 28.2044 15.3054 28.2148 15.5002 28.2879L24.004 31.4768C24.1555 31.5337 24.3186 31.5529 24.4792 31.5328L32.1489 30.5741C32.7443 30.4996 33.1406 29.9213 32.9951 29.3392L30.6728 20.0504C30.545 19.5392 30.0423 19.2148 29.5238 19.3091L24.5349 20.2162C24.3392 20.2518 24.1374 20.2282 23.9552 20.1485L15.6297 16.5061C15.3578 16.3871 15.0472 16.3951 14.7817 16.5278L9.96572 18.9358C9.70462 19.0664 9.5136 19.3045 9.4428 19.5877Z"  fill="currentColor" stroke="white"/>
    <path d="M25.634 12.6323L25.634 12.6323L25.6328 12.6299C25.1854 11.75 24.5235 10.9966 23.7082 10.4388C22.8928 9.881 21.95 9.53668 20.9665 9.4374L20.9661 9.43735C20.5257 9.39328 20.082 9.39328 19.6416 9.43735L19.6412 9.4374C18.6577 9.53675 17.715 9.88105 16.8996 10.4388C16.0842 10.9965 15.4223 11.7498 14.9747 12.6295L14.9747 12.6295L14.9734 12.6321C14.4139 13.7475 14.1977 15.0032 14.3523 16.2411C14.5065 17.4769 15.0234 18.6396 15.8377 19.5831L19.5008 24.0257C19.5009 24.0258 19.5009 24.0258 19.5009 24.0259C19.5986 24.1443 19.7212 24.2396 19.86 24.305L20.0731 23.8527L19.86 24.305C19.9988 24.3704 20.1503 24.4043 20.3037 24.4043C20.4571 24.4043 20.6087 24.3704 20.7475 24.305L20.5343 23.8527L20.7475 24.305C20.8862 24.2396 21.0089 24.1443 21.1065 24.0259C21.1065 24.0258 21.1066 24.0258 21.1066 24.0257L24.7697 19.5831C25.584 18.6397 26.1009 17.477 26.2552 16.2412C26.4097 15.0034 26.1935 13.7477 25.634 12.6323ZM20.3035 16.9425C19.9751 16.9424 19.6542 16.8453 19.3814 16.6634C19.1085 16.4815 18.896 16.2232 18.7706 15.9211C18.6452 15.619 18.6124 15.2867 18.6763 14.9662C18.7402 14.6456 18.8981 14.3509 19.13 14.1195C19.362 13.8881 19.6577 13.7304 19.9798 13.6665C20.3019 13.6026 20.6357 13.6354 20.9391 13.7608C21.2424 13.8861 21.5015 14.0982 21.6837 14.3702C21.8658 14.6421 21.9629 14.9616 21.963 15.2884C21.9624 15.7265 21.7876 16.1467 21.4767 16.4569C21.1657 16.7671 20.7438 16.9419 20.3035 16.9425Z" fill="currentColor" stroke="white"/>
  </symbol>

  <symbol id="partners-page" fill="none">
    <path d="M27 11.4007H1V7.33398C1 6.22941 1.89543 5.33398 3 5.33398H18.7667H25C26.1046 5.33398 27 6.22942 27 7.33398V11.4007Z"  fill="currentColor"/>
    <path d="M9.66663 3V6.2H17.4666V3C17.4666 1.89543 16.5712 1 15.4666 1H11.6666C10.5621 1 9.66663 1.89543 9.66663 3Z" stroke="currentColor" stroke-width="2"/>
    <path d="M25 23.5333H3C1.89543 23.5333 1 22.6379 1 21.5333V14H5.44167H7.6625H8.77292H9.88333H18.7667H27V21.5333C27 22.6379 26.1046 23.5333 25 23.5333Z" fill="currentColor" stroke="currentColor"/>
    <path d="M6.06665 15.7328C6.06665 16.2851 6.51437 16.7328 7.06665 16.7328C7.61894 16.7328 8.06665 16.2851 8.06665 15.7328H6.06665ZM6.06665 13.1328V15.7328H8.06665V13.1328H6.06665Z" fill="white"/>
    <path d="M19.9333 15.7328C19.9333 16.2851 20.3811 16.7328 20.9333 16.7328C21.4856 16.7328 21.9333 16.2851 21.9333 15.7328H19.9333ZM19.9333 13.1328V15.7328H21.9333V13.1328H19.9333Z" fill="white"/>
  </symbol>

  <symbol id="reports-page" fill="none">
    <path d="M29.8718 13.4286L24.0898 7.61487C23.3846 6.92277 22.3975 6.50749 21.2693 6.50749H12.9487C10.8333 6.36906 9 8.16857 9 10.2449V29.6241C9 31.7005 10.6923 33.5 12.9487 33.5H27.0513C29.1667 33.5 31 31.839 31 29.6241V16.0587C31 15.0897 30.5769 14.1208 29.8718 13.4286ZM15.7692 17.443H20C20.5642 17.443 21.1282 17.8582 21.1282 18.5504C21.1282 19.2424 20.7051 19.6576 20 19.6576H15.7692C15.2051 19.6576 14.641 19.2424 14.641 18.5504C14.641 17.8582 15.2051 17.443 15.7692 17.443ZM24.2307 25.1947H15.7692C15.2051 25.1947 14.641 24.7794 14.641 24.0873C14.641 23.3951 15.0641 22.9799 15.7692 22.9799H24.2307C24.7949 22.9799 25.3589 23.3951 25.3589 24.0873C25.3589 24.7794 24.7949 25.1947 24.2307 25.1947Z" fill="currentColor"/>
  </symbol>

  <symbol id="account" fill="none" >
    <path d="M25.5418 13.2757C25.5417 14.319 25.2165 15.3388 24.6075 16.2062C23.9985 17.0736 23.1329 17.7496 22.1203 18.1487C21.1076 18.5479 19.9934 18.6523 18.9184 18.4486C17.8434 18.245 16.856 17.7426 16.0811 17.0048C15.3061 16.2671 14.7784 15.3271 14.5646 14.3039C14.3508 13.2807 14.4606 12.2201 14.8801 11.2562C15.2996 10.2924 16.0099 9.46855 16.9212 8.88896C17.8325 8.30936 18.904 8 20 8C20.7278 8.00005 21.4485 8.13654 22.1209 8.4017C22.7933 8.66685 23.4042 9.05548 23.9188 9.54537C24.4334 10.0353 24.8416 10.6169 25.1201 11.2569C25.3986 11.897 25.5419 12.583 25.5418 13.2757ZM20 20.1117C18.4307 20.11 16.8782 20.4196 15.4416 21.0208C14.005 21.6221 12.7158 22.5018 11.6563 23.6038C9.78613 25.5433 10.2442 28.6288 12.599 30.0097C14.8255 31.3111 17.3872 32 20 32C22.6128 32 25.1745 31.3111 27.401 30.0097C29.7558 28.6288 30.2139 25.5433 28.3437 23.6038C27.2842 22.5018 25.995 21.6221 24.5584 21.0208C23.1218 20.4196 21.5693 20.11 20 20.1117Z" fill="currentColor"/>
  </symbol>

  <symbol id="logout" fill="none">
    <rect x="8.25" y="8.25" width="23.5" height="23.5" rx="7" fill="currentColor"/>
    <path d="M8.25 20H22.35" stroke="white" stroke-width="3" stroke-linecap="round"/>
    <path d="M18.8252 14.7124L21.4689 17.3562L22.7908 18.678L23.4518 19.339L23.7822 19.6694L23.9475 19.8347V19.8347C24.0387 19.9259 24.0387 20.0739 23.9475 20.1651V20.1651L23.7822 20.3304L23.4518 20.6608L22.7908 21.3218L21.4689 22.6437L18.8252 25.2874" stroke="white" stroke-width="3" stroke-linecap="round"/>
  </symbol>

  <symbol id="arrow-down"  fill="none">
    <path d="M0.529297 3.35352L5.82341 8.64763L11.1175 3.35352" stroke="#838994" stroke-width="1.5"/>
  </symbol>

  <symbol id="arrow-down-big"  fill="none">
    <path d="M1.44116 0.706055L8.49999 7.76488L15.5588 0.706055" stroke="#303133" stroke-width="2"/>
  </symbol>

  <symbol id="arrow-up" fill="none">
    <path d="M0.705811 8.52942L7.76463 1.4706L14.8235 8.52942" stroke="#838994" stroke-width="2"/>
  </symbol>

  <symbol id="arrow-left" fill="none">
    <path d="M11.5293 15.2949L4.47047 8.2361L11.5293 1.17727" stroke="#838994" stroke-width="2"/>
  </symbol>

  <symbol id="arrow-right" fill="none" >
    <path d="M4.47058 15.2949L11.5294 8.2361L4.47058 1.17727" stroke="currentColor" stroke-width="2"/>
  </symbol>

  <symbol id="user" fill="none" >
    <path d="M12.3958 4.39645C12.3956 5.26585 12.1377 6.11568 11.6546 6.8385C11.1715 7.56132 10.485 8.12466 9.68172 8.45729C8.87847 8.78991 7.99463 8.87688 7.14195 8.7072C6.28927 8.53752 5.50606 8.1188 4.89135 7.50401C4.27663 6.88921 3.85802 6.10594 3.68846 5.25324C3.51889 4.40054 3.60597 3.51671 3.9387 2.71351C4.27143 1.9103 4.83486 1.22379 5.55775 0.740797C6.28063 0.257798 7.1305 7.66447e-09 7.9999 0C8.57721 3.83252e-05 9.14886 0.113786 9.68221 0.334749C10.2156 0.555712 10.7002 0.879563 11.1084 1.28781C11.5166 1.69606 11.8403 2.18071 12.0612 2.71409C12.2821 3.24747 12.3958 3.81914 12.3958 4.39645ZM7.9999 10.0931C6.75508 10.0916 5.52362 10.3496 4.38408 10.8507C3.24455 11.3517 2.22197 12.0848 1.38158 13.0031C-0.101897 14.6194 0.261458 17.1906 2.12931 18.3414C3.89541 19.4259 5.9274 20 7.9999 20C10.0724 20 12.1044 19.4259 13.8705 18.3414C15.7383 17.1906 16.1017 14.6194 14.6182 13.0031C13.7778 12.0848 12.7552 11.3517 11.6157 10.8507C10.4762 10.3496 9.24472 10.0916 7.9999 10.0931Z" fill="currentColor"/>
  </symbol>

  <symbol id="open-eye" viewBox="0 0 16 16" fill="none">
    <path d="M0.666504 7.99984C0.666504 7.99984 3.33317 2.6665 7.99984 2.6665C12.6665 2.6665 15.3332 7.99984 15.3332 7.99984C15.3332 7.99984 12.6665 13.3332 7.99984 13.3332C3.33317 13.3332 0.666504 7.99984 0.666504 7.99984Z" stroke="currentColor" stroke-linecap="round" stroke-linejoin="round"/>
    <path d="M7.99984 9.99984C9.10441 9.99984 9.99984 9.10441 9.99984 7.99984C9.99984 6.89527 9.10441 5.99984 7.99984 5.99984C6.89527 5.99984 5.99984 6.89527 5.99984 7.99984C5.99984 9.10441 6.89527 9.99984 7.99984 9.99984Z" stroke="currentColor" stroke-linecap="round" stroke-linejoin="round"/>
  </symbol>

  <symbol id="close-eye" viewBox="0 0 16 16" fill="none">
    <g clip-path="url(#clip0_6112_10949)">
      <path d="M6.59984 2.8265C7.05872 2.71909 7.52855 2.6654 7.99984 2.6665C12.6665 2.6665 15.3332 7.99984 15.3332 7.99984C14.9285 8.75691 14.4459 9.46966 13.8932 10.1265M9.41317 9.41317C9.23007 9.60967 9.00927 9.76727 8.76394 9.87659C8.51861 9.9859 8.25377 10.0447 7.98523 10.0494C7.71669 10.0542 7.44995 10.0048 7.20091 9.90416C6.95188 9.80357 6.72565 9.65386 6.53573 9.46394C6.34582 9.27402 6.1961 9.0478 6.09551 8.79876C5.99492 8.54973 5.94552 8.28298 5.95026 8.01444C5.955 7.7459 6.01378 7.48107 6.12309 7.23574C6.2324 6.9904 6.39001 6.7696 6.5865 6.5865M0.666504 0.666504L15.3332 15.3332M11.9598 11.9598C10.8202 12.8285 9.43258 13.3097 7.99984 13.3332C3.33317 13.3332 0.666504 7.99984 0.666504 7.99984C1.49576 6.45443 2.64593 5.10424 4.03984 4.03984L11.9598 11.9598Z" stroke="currentColor" stroke-linecap="round" stroke-linejoin="round"/>
    </g>
    <defs>
      <clipPath id="clip0_6112_10949">
        <rect width="16" height="16" fill="white"/>
      </clipPath>
    </defs>
  </symbol>

  <symbol id="ok" fill="none">
    <path d="M1.5 7L6.5 12L14.5 4" stroke="white" stroke-width="2"/>
  </symbol>

  <symbol id="green-ok" viewBox="0 0 16 16" fill="none" >
    <rect width="16" height="16" rx="8" fill="#309F49"/>
    <path d="M4.75 7.5L7.25 10L11.25 6" stroke="white"/>
  </symbol>

  <symbol id="edit" viewBox="0 0 16 16" fill="none">
    <path d="M8.47565 3.10855L0.818546 10.7763C0.536393 11.0594 0.358073 11.4297 0.312537 11.827L0.00744361 14.5096C-0.0124441 14.6983 0.00762911 14.889 0.0663525 15.0694C0.125076 15.2497 0.221129 15.4156 0.348238 15.5563C0.475347 15.6969 0.630653 15.8091 0.804015 15.8856C0.977376 15.9621 1.16489 16.001 1.35432 16H1.51059L4.18946 15.6945C4.58467 15.6487 4.95362 15.4731 5.23868 15.1952L12.8958 7.51995L8.47565 3.10855Z" fill="#C3B091"/>
    <path d="M15.4854 2.46025L13.5432 0.515363C13.3807 0.352016 13.1876 0.222404 12.975 0.133965C12.7624 0.0455257 12.5344 0 12.3042 0C12.074 0 11.846 0.0455257 11.6334 0.133965C11.4208 0.222404 11.2277 0.352016 11.0652 0.515363L9.26443 2.31867L13.6846 6.74498L15.4854 4.94167C15.6485 4.77897 15.7779 4.58562 15.8662 4.3727C15.9545 4.15979 16 3.93151 16 3.70096C16 3.47041 15.9545 3.24213 15.8662 3.02922C15.7779 2.81631 15.6485 2.62295 15.4854 2.46025Z" fill="#C3B091"/>
  </symbol>

  <symbol id="avatar" viewBox="0 0 104 136" fill="none">
    <path d="M81.8394 29.8931C81.8386 35.7876 80.0876 41.5496 76.8079 46.4503C73.5282 51.3511 68.8671 55.1705 63.4138 57.4257C57.9606 59.6809 51.9602 60.2706 46.1714 59.1201C40.3827 57.9697 35.0654 55.1308 30.8922 50.9624C26.7189 46.7941 23.877 41.4835 22.7258 35.7022C21.5746 29.9208 22.1658 23.9284 24.4247 18.4826C26.6836 13.0369 30.5087 8.38234 35.4163 5.10759C40.324 1.83284 46.0937 0.084961 51.996 0.0849609C55.9154 0.0852208 59.7963 0.856437 63.4172 2.35458C67.0381 3.85271 70.3281 6.04844 73.0993 8.81638C75.8705 11.5843 78.0687 14.8703 79.5683 18.4866C81.0679 22.103 81.8396 25.9789 81.8394 29.8931ZM51.996 68.5166C43.545 68.5066 35.1846 70.256 27.4484 73.6531C19.7122 77.0502 12.7699 82.0205 7.06455 88.2468C-3.00674 99.2052 -0.539938 116.638 12.1408 124.44C24.1308 131.793 37.9259 135.686 51.996 135.686C66.0661 135.686 79.8612 131.793 91.8512 124.44C104.532 116.638 106.999 99.2052 96.9275 88.2468C91.2221 82.0205 84.2799 77.0502 76.5436 73.6531C68.8074 70.256 60.4471 68.5066 51.996 68.5166Z" fill="#DFE3EA"/>
  </symbol>

  <symbol id="photo" viewBox="0 0 18 18" fill="none">
    <path d="M1 7.98459C1 7.15617 1.67157 6.4846 2.5 6.4846H3.81109C4.56205 6.4846 5.26649 6.12086 5.7013 5.50858C7.3141 3.23753 10.6859 3.23753 12.2987 5.50858C12.7335 6.12086 13.438 6.4846 14.1889 6.4846H15.5C16.3284 6.4846 17 7.15617 17 7.9846V16C17 16.8284 16.3284 17.5 15.5 17.5H2.5C1.67157 17.5 1 16.8284 1 16V7.98459Z" fill="#838994" stroke="#838994"/>
    <path d="M12 11.5C12 13.1569 10.6569 14.5 9 14.5C7.34315 14.5 6 13.1569 6 11.5C6 9.84314 7.34315 8.5 9 8.5C10.6569 8.5 12 9.84314 12 11.5Z" fill="#838994" stroke="white"/>
  </symbol>

  <symbol id="instagram" fill="none">
    <path d="M0.5 5.10156C0.5 2.34014 2.73858 0.101562 5.5 0.101562H20.5C23.2614 0.101562 25.5 2.34014 25.5 5.10156V20.1016C25.5 22.863 23.2614 25.1016 20.5 25.1016H5.5C2.73858 25.1016 0.5 22.863 0.5 20.1016V5.10156Z" fill="#838994"/>
    <circle cx="12.9998" cy="12.6014" r="5.81818" stroke="#F3EFE9" stroke-width="2"/>
    <circle cx="21" cy="3.60156" r="1.5" fill="#F3EFE9"/>
  </symbol>

  <symbol id="whatsapp" fill="none">
    <path d="M9.77288 11.7953C10.8375 13.4895 11.9282 14.4283 13.7667 15.0492C14.1323 15.1727 14.5324 15.0492 14.7857 14.7581L15.3286 14.1342C15.6149 13.8051 16.0814 13.6996 16.4814 13.8734L18.0095 14.5372C18.1382 14.5931 18.2108 14.7309 18.1841 14.8687C18.0143 15.7462 17.5949 16.63 16.7789 16.9948C16.3985 17.1649 16.0972 17.1874 15.7618 17.1825C15.1736 17.1739 14.5831 17.0718 14.0368 16.8535C11.4891 15.8357 10.1428 14.9788 8.38458 12.2109C7.68065 11.1028 6.85259 9.74629 7.29587 8.51059C7.30758 8.47796 7.32101 8.44452 7.33634 8.40987C7.65799 7.68271 8.53885 7.40486 9.31834 7.56171C9.48128 7.59449 9.61724 7.70619 9.68101 7.85968L10.2947 9.33669C10.4441 9.6961 10.3713 10.1095 10.1083 10.3963L9.89202 10.6321C9.59843 10.9522 9.54179 11.4275 9.77288 11.7953Z" fill="#838994" stroke="#838994"/>
    <path d="M7.47839 21.8473L7.47835 21.8473L7.4778 21.8475L7.47519 21.8484L7.46403 21.8521L7.41877 21.8671C7.37873 21.8803 7.31941 21.8999 7.2434 21.9246C7.09134 21.9742 6.87274 22.0446 6.60827 22.1275C6.07833 22.2937 5.36885 22.5088 4.64373 22.7068C3.91263 22.9063 3.19104 23.0815 2.62862 23.175C2.58228 23.1827 2.53795 23.1897 2.49563 23.196C2.49757 23.184 2.49957 23.1718 2.50164 23.1595C2.58952 22.635 2.76377 21.9523 2.96679 21.2529C3.16775 20.5606 3.38827 19.8812 3.55935 19.3727C3.64469 19.1191 3.71729 18.9093 3.76838 18.7635C3.79392 18.6905 3.81406 18.6336 3.82771 18.5953L3.84316 18.552L3.84698 18.5414L3.84786 18.5389L3.84804 18.5384L3.84806 18.5384L3.98254 18.1655L3.82511 17.8019L3.82509 17.8019L3.82506 17.8018L3.82503 17.8018L3.82461 17.8008L3.82229 17.7954L3.81218 17.7718C3.80309 17.7504 3.7894 17.7181 3.77175 17.6759C3.73642 17.5915 3.6853 17.4678 3.62336 17.3132C3.49925 17.0036 3.33282 16.5733 3.16341 16.0904C2.81273 15.0908 2.49233 13.9842 2.4454 13.2459C2.08164 7.52311 6.4573 2.57589 12.2332 2.20876C18.0092 1.84162 22.976 6.19501 23.3398 11.9178C23.7035 17.6407 19.3279 22.5879 13.5519 22.955C12.3176 23.0335 10.9873 22.7763 9.92973 22.4783C9.40848 22.3314 8.96958 22.1793 8.6628 22.0646C8.5097 22.0074 8.39028 21.9598 8.31085 21.9272C8.27115 21.9109 8.24151 21.8985 8.22269 21.8904L8.20273 21.8819L8.19965 21.8805L8.19934 21.8804L8.19909 21.8803L8.19904 21.8803L8.1988 21.8802L7.84545 21.7243L7.47843 21.8473L7.47839 21.8473Z" stroke="#838994" stroke-width="2"/>
  </symbol>

  <symbol id="telegram" fill="none">
    <circle cx="13.1216" cy="12.6016" r="12.5" fill="#838994"/>
    <path d="M14.2828 11.652C14.2827 11.6521 14.2826 11.6522 14.2824 11.6523L14.2828 11.652L14.2588 11.6199L14.2588 11.6199L14.1578 11.4852L14.2588 11.6199L14.2588 11.6199L14.2828 11.652ZM13.6828 10.852L13.567 10.9389L13.0891 11.2407L12.5943 11.5532L11.6082 12.176L8.69392 13.9519C8.56272 14.0318 8.40204 14.047 8.25817 13.9931L6.63064 13.3827L6.60764 13.3741L6.58391 13.3678L5.2421 13.01L17.0745 7.93896C17.4357 7.78415 17.8261 8.08743 17.7654 8.47572L17.5236 10.0237L17.0027 13.3571L16.2148 18.3996C16.157 18.7699 15.7274 18.9472 15.4252 18.7256L11.4407 15.8037C11.1936 15.6225 11.1662 15.2636 11.3828 15.0469L13.4753 12.9545L13.4818 12.9479L13.4881 12.9411L14.1652 12.212L14.5038 11.8474L14.5478 11.8L14.1814 11.4597L14.5478 11.8C14.8349 11.4907 14.7501 10.9932 14.3766 10.7967C14.1541 10.6796 13.884 10.7011 13.6828 10.852Z" fill="#F3EFE9"/>
    <path d="M14.2828 11.652C14.2827 11.6521 14.2826 11.6522 14.2824 11.6523L14.2828 11.652L14.2588 11.6199L14.2588 11.6199L14.1578 11.4852L14.2588 11.6199L14.2588 11.6199L14.2828 11.652ZM13.6828 10.852L13.567 10.9389L13.0891 11.2407L12.5943 11.5532L11.6082 12.176L8.69392 13.9519C8.56272 14.0318 8.40204 14.047 8.25817 13.9931L6.63064 13.3827L6.60764 13.3741L6.58391 13.3678L5.2421 13.01L17.0745 7.93896C17.4357 7.78415 17.8261 8.08743 17.7654 8.47572L17.5236 10.0237L17.0027 13.3571L16.2148 18.3996C16.157 18.7699 15.7274 18.9472 15.4252 18.7256L11.4407 15.8037C11.1936 15.6225 11.1662 15.2636 11.3828 15.0469L13.4753 12.9545L13.4818 12.9479L13.4881 12.9411L14.1652 12.212L14.5038 11.8474L14.5478 11.8L14.1814 11.4597L14.5478 11.8C14.8349 11.4907 14.7501 10.9932 14.3766 10.7967C14.1541 10.6796 13.884 10.7011 13.6828 10.852Z" stroke="#F3EFE9"/>
    <path d="M14.2828 11.652C14.2827 11.6521 14.2826 11.6522 14.2824 11.6523L14.2828 11.652L14.2588 11.6199L14.2588 11.6199L14.1578 11.4852L14.2588 11.6199L14.2588 11.6199L14.2828 11.652ZM13.6828 10.852L13.567 10.9389L13.0891 11.2407L12.5943 11.5532L11.6082 12.176L8.69392 13.9519C8.56272 14.0318 8.40204 14.047 8.25817 13.9931L6.63064 13.3827L6.60764 13.3741L6.58391 13.3678L5.2421 13.01L17.0745 7.93896C17.4357 7.78415 17.8261 8.08743 17.7654 8.47572L17.5236 10.0237L17.0027 13.3571L16.2148 18.3996C16.157 18.7699 15.7274 18.9472 15.4252 18.7256L11.4407 15.8037C11.1936 15.6225 11.1662 15.2636 11.3828 15.0469L13.4753 12.9545L13.4818 12.9479L13.4881 12.9411L14.1652 12.212L14.5038 11.8474L14.5478 11.8L14.1814 11.4597L14.5478 11.8C14.8349 11.4907 14.7501 10.9932 14.3766 10.7967C14.1541 10.6796 13.884 10.7011 13.6828 10.852Z" stroke="#F3EFE9"/>
  </symbol>

  <symbol id="fasebook" fill="none">
    <circle cx="12.6821" cy="12.5" r="12.5" fill="#838994"/>
    <path d="M17.7095 13.2024L17.2095 15.8778H8.20947V13.0233L17.7095 13.2024ZM10.7627 25.2024V10.2024C10.7627 9.26151 10.9311 8.48181 11.2679 7.86334C11.6047 7.23958 12.0722 6.77441 12.6704 6.46782C13.2685 6.15594 13.9597 6 14.7439 6C15.2566 6 17.275 6.11785 17.7274 6.20243V9C17.5941 9 17.9917 9 17.7274 9C17.5364 8.96828 16.1418 8.81247 15.7095 8.81247C15.2772 8.81247 14.8519 9.1135 14.6911 9.31437C14.5302 9.51524 14.4498 9.79011 14.4498 10.139V25.2024H10.7627Z" fill="#F3EFE9"/>
  </symbol>

  <symbol id="email" fill="none">
    <path d="M1 2.16667C1 1.85369 1.09368 1.55831 1.26033 1.30479L9.95892 9.69084C10.5399 10.251 11.46 10.251 12.0411 9.69084L20.7397 1.30479C20.9063 1.55831 21 1.85369 21 2.16667V13C21 13.8912 20.2208 14.6667 19.1923 14.6667H2.80769C1.77916 14.6667 1 13.8912 1 13V2.16667ZM19.9672 0.660502L11.347 8.97092C11.1534 9.15764 10.8467 9.15764 10.653 8.97092L2.03284 0.660502C2.26663 0.557947 2.529 0.5 2.80769 0.5H19.1923C19.471 0.5 19.7334 0.557947 19.9672 0.660502Z" fill="#838994" stroke="white"/>
  </symbol>

  <symbol id="phone" fill="none">
    <path d="M8.5003 6.29228C8.42466 6.93654 5.84382 8.21689 6.12855 8.56002C7.52742 11.3336 8.58285 12.7378 12.0579 14.3563C12.0579 14.3563 13.3555 11.8853 14.4297 12.0886C15.8151 12.3508 17.8518 13.7966 18.3826 14.9867C19.2712 16.9792 14.825 18.4965 14.825 18.4965C7.70971 18.6942 1.78035 10.4137 2.57093 5.66187C2.57093 5.66187 4.3981 0.325341 6.12855 1.73805C6.65795 2.17024 8.71058 4.50117 8.5003 6.29228Z" fill="#838994" stroke="#838994"/>
  </symbol>

  <symbol id="geo" fill="none">
    <path d="M14.9589 4.71745C14.3756 3.5674 13.5126 2.58244 12.4491 1.85311C11.3857 1.12379 10.1559 0.673511 8.87295 0.543674C8.29257 0.485442 7.70783 0.485442 7.12745 0.543674C5.84451 0.673596 4.6148 1.12386 3.5513 1.8531C2.4878 2.58234 1.62463 3.56715 1.04109 4.71707C0.306917 6.18429 0.0233351 7.83596 0.226065 9.46404C0.428796 11.0921 1.10877 12.6238 2.18035 13.8662L7.40576 20.2192C7.47793 20.307 7.56864 20.3777 7.67139 20.4263C7.77414 20.4748 7.88637 20.5 8.00001 20.5C8.11365 20.5 8.22587 20.4748 8.32862 20.4263C8.43137 20.3777 8.52209 20.307 8.59425 20.2192L13.8197 13.8662C14.8912 12.6239 15.5712 11.0923 15.7739 9.46424C15.9767 7.83622 15.6931 6.18461 14.9589 4.71745ZM8.00001 11.2688C7.39144 11.2688 6.79653 11.0884 6.29052 10.7503C5.78452 10.4122 5.39013 9.93159 5.15724 9.36935C4.92435 8.8071 4.86342 8.18842 4.98214 7.59154C5.10087 6.99467 5.39392 6.4464 5.82425 6.01607C6.25457 5.58575 6.80284 5.2927 7.39972 5.17397C7.99659 5.05524 8.61527 5.11618 9.17752 5.34907C9.73976 5.58196 10.2203 5.97634 10.5584 6.48235C10.8965 6.98836 11.077 7.58326 11.077 8.19183C11.076 9.00761 10.7515 9.78969 10.1747 10.3665C9.59787 10.9434 8.81578 11.2679 8.00001 11.2688Z" fill="currentColor"/>
  </symbol>

  <symbol id="close" fill="none" >
    <path d="M1.6001 1.59961L7.0001 7.00177L12.4001 1.59961M1.6001 12.3996L7.0001 6.99745L12.4001 12.3996" stroke="currentColor" stroke-width="2"/>
  </symbol>

  <symbol id="view" fill="none" >
    <path d="M9 3.66602C5.57941 3.66602 2.6002 5.81441 1 8.99941C2.6002 12.185 5.57941 14.3328 9 14.3328C12.4206 14.3328 15.3998 12.185 17 8.99941C15.3998 5.81441 12.4206 3.66602 9 3.66602ZM9 12.3328C7.15879 12.3328 5.6666 10.8406 5.6666 8.99941C5.6666 7.1582 7.15879 5.66602 9 5.66602C10.8412 5.66602 12.3334 7.1582 12.3334 8.99941C12.3334 10.8406 10.8412 12.3328 9 12.3328Z" fill="white"/>
    <path d="M9 10.9994C10.1046 10.9994 11 10.104 11 8.99941C11 7.89484 10.1046 6.99941 9 6.99941C7.89543 6.99941 7 7.89484 7 8.99941C7 10.104 7.89543 10.9994 9 10.9994Z" fill="white"/>
  </symbol>

  <symbol id="feather" viewBox="0 0 40 41" fill="none">
    <rect y="0.5" width="40" height="40" rx="20" fill="#F3EFE9"/>
    <path d="M27.599 13.3762C27.535 13.3388 21.589 10.1765 15.9949 16.1012C15.6749 16.6185 15.4563 17.2691 15.2269 17.829C15.1949 17.3384 14.523 17.1251 14.2457 17.5517C14.1551 17.685 12.0646 20.7621 13.1738 23.5938C12.8592 24.2497 12.0433 26.1588 12.1339 27.9933C12.1393 28.2706 12.3899 28.5052 12.6672 28.4999C12.7899 28.4999 12.9125 28.4572 13.0085 28.3772L14.3897 27.2254C14.7523 26.6974 14.8003 26.0522 15.211 25.3909C16.5335 25.3802 17.8133 24.9696 17.872 24.9483C18.096 24.8789 18.24 24.6603 18.2346 24.4257C18.2293 24.2763 18.1653 24.143 18.064 24.0524C18.8586 24.1164 19.4452 23.8604 19.6905 23.6684C20.677 22.9805 22.3675 21.2847 22.4422 21.2153C22.7195 20.9487 22.5968 20.4368 22.2236 20.3301C22.2129 20.3248 22.1969 20.3194 22.1809 20.3141C22.8795 20.1968 23.3701 19.8875 23.4181 19.8555C26.7777 17.3491 27.807 14.1334 27.8496 14.0001C27.9243 13.7601 27.8176 13.4935 27.599 13.3762ZM14.4324 24.5803C14.0484 25.2736 13.7658 25.9135 13.5791 26.5055L13.2752 26.7614C13.4991 25.3376 14.1391 24.047 14.2244 23.8817C14.4537 23.5191 17.856 18.309 20.9383 17.0025C19.5358 18.245 16.1975 21.386 14.4324 24.5803Z" fill="#C3B091"/>
  </symbol>

  <symbol id="ungulate" viewBox="0 0 40 41" fill="none">
    <rect y="0.5" width="40" height="40" rx="20" fill="#F3EFE9"/>
    <path d="M11.344 20.9238C10.596 23.9404 10.9885 25.6856 13.3113 28.6138C13.4952 28.8457 13.7368 29.0273 14.0108 29.1347C15.4718 29.7076 16.1923 29.7129 16.8754 28.3737C17.1161 27.9018 17.0777 27.3287 16.7435 26.9194C16.401 26.4999 15.9574 26.0778 15.4447 25.6343C14.8596 25.1282 14.2778 24.5716 14.0491 23.8277C13.7374 22.8141 13.8318 21.6372 14.2546 19.7561C14.4378 18.9405 14.7291 18.154 15.0882 17.4006C15.5917 16.3439 16.0453 15.248 16.7044 14.283C17.281 13.4387 17.9549 12.5451 18.0966 12.1811C18.1705 11.9913 18.1974 11.8305 18.1998 11.6995C18.204 11.47 17.9569 11.4361 17.8092 11.6103C17.6839 11.758 17.5661 11.8984 17.4549 12.0335C16.2179 13.5359 15.0874 15.1422 13.8065 16.6064C12.6427 17.9367 11.9093 19.1418 11.344 20.9238Z" fill="#C3B091"/>
    <path d="M28.656 20.9238C29.404 23.9404 29.0115 25.6856 26.6887 28.6138C26.5048 28.8457 26.2632 29.0273 25.9892 29.1347C24.5282 29.7076 23.8077 29.7129 23.1246 28.3737C22.8839 27.9018 22.9223 27.3287 23.2565 26.9194C23.599 26.4999 24.0426 26.0778 24.5553 25.6343C25.1404 25.1282 25.7222 24.5716 25.9509 23.8277C26.2626 22.8141 26.1682 21.6372 25.7454 19.7561C25.5622 18.9405 25.2709 18.154 24.9118 17.4006C24.4083 16.3439 23.9547 15.248 23.2956 14.283C22.719 13.4387 22.0451 12.5451 21.9034 12.1811C21.8295 11.9913 21.8026 11.8305 21.8002 11.6995C21.796 11.47 22.0431 11.4361 22.1908 11.6103C22.3161 11.758 22.4339 11.8984 22.5451 12.0335C23.7821 13.5359 24.9126 15.1422 26.1934 16.6064C27.3573 17.9367 28.0907 19.1418 28.656 20.9238Z" fill="#C3B091"/>
    <path d="M11.344 20.9238C10.596 23.9404 10.9885 25.6856 13.3113 28.6138C13.4952 28.8457 13.7368 29.0273 14.0108 29.1347C15.4718 29.7076 16.1923 29.7129 16.8754 28.3737C17.1161 27.9018 17.0777 27.3287 16.7435 26.9194C16.401 26.4999 15.9574 26.0778 15.4447 25.6343C14.8596 25.1282 14.2778 24.5716 14.0491 23.8277C13.7374 22.8141 13.8318 21.6372 14.2546 19.7561C14.4378 18.9405 14.7291 18.154 15.0882 17.4006C15.5917 16.3439 16.0453 15.248 16.7044 14.283C17.281 13.4387 17.9549 12.5451 18.0966 12.1811C18.1705 11.9913 18.1974 11.8305 18.1998 11.6995C18.204 11.47 17.9569 11.4361 17.8092 11.6103C17.6839 11.758 17.5661 11.8984 17.4549 12.0335C16.2179 13.5359 15.0874 15.1422 13.8065 16.6064C12.6427 17.9367 11.9093 19.1418 11.344 20.9238Z" stroke="#C3B091"/>
    <path d="M28.656 20.9238C29.404 23.9404 29.0115 25.6856 26.6887 28.6138C26.5048 28.8457 26.2632 29.0273 25.9892 29.1347C24.5282 29.7076 23.8077 29.7129 23.1246 28.3737C22.8839 27.9018 22.9223 27.3287 23.2565 26.9194C23.599 26.4999 24.0426 26.0778 24.5553 25.6343C25.1404 25.1282 25.7222 24.5716 25.9509 23.8277C26.2626 22.8141 26.1682 21.6372 25.7454 19.7561C25.5622 18.9405 25.2709 18.154 24.9118 17.4006C24.4083 16.3439 23.9547 15.248 23.2956 14.283C22.719 13.4387 22.0451 12.5451 21.9034 12.1811C21.8295 11.9913 21.8026 11.8305 21.8002 11.6995C21.796 11.47 22.0431 11.4361 22.1908 11.6103C22.3161 11.758 22.4339 11.8984 22.5451 12.0335C23.7821 13.5359 24.9126 15.1422 26.1934 16.6064C27.3573 17.9367 28.0907 19.1418 28.656 20.9238Z" stroke="#C3B091"/>
  </symbol>

  <symbol id="download" fill="none">
    <rect width="16" height="16" rx="8" fill="#C3B091"/>
    <path d="M8 4V9.5M8 9.5L11 7M8 9.5L5 7" stroke="white" stroke-linecap="round"/>
    <path d="M5 12H11" stroke="white" stroke-linecap="round"/>
  </symbol>

 <symbol id="upload-file" viewBox="0 0 46 47" fill="none">
    <circle cx="32" cy="14" r="14" fill="#838994"/>
    <path d="M31.2929 20.7071C31.6834 21.0976 32.3166 21.0976 32.7071 20.7071L39.0711 14.3431C39.4616 13.9526 39.4616 13.3195 39.0711 12.9289C38.6805 12.5384 38.0474 12.5384 37.6569 12.9289L32 18.5858L26.3431 12.9289C25.9526 12.5384 25.3195 12.5384 24.9289 12.9289C24.5384 13.3195 24.5384 13.9526 24.9289 14.3431L31.2929 20.7071ZM31 8V20H33V8H31Z" fill="white"/>
    <path d="M14.5 2H5C3.34315 2 2 3.34315 2 5V41.5C2 43.1569 3.34315 44.5 5 44.5H40.5C42.1569 44.5 43.5 43.1569 43.5 41.5V30" stroke="#838994" stroke-width="4" stroke-linecap="round"/>
    <path d="M35.0214 34.9252L39.8793 39.5517C41.1867 40.7968 40.3054 43 38.5 43H27.1732C25.3451 43 24.4752 40.7498 25.8279 39.5201L30.9345 34.8778C32.0985 33.8196 33.8823 33.8402 35.0214 34.9252Z" fill="#838994" stroke="#838994" stroke-width="4" stroke-linecap="round"/>
    <path d="M14.8641 30.026L22.4756 39.7687C23.5014 41.0818 22.5658 43 20.8995 43H4.10049C2.43419 43 1.4986 41.0818 2.52444 39.7687L10.1359 30.026C11.337 28.4886 13.663 28.4886 14.8641 30.026Z" fill="#838994" stroke="#838994" stroke-width="4" stroke-linecap="round"/>
  </symbol>

  <symbol id="delete" viewBox="0 0 16 17" fill="none" >
    <path d="M2.50263 5.42308V11.0026C2.58469 12.0692 2.66674 13.4641 2.74879 14.4487C2.83084 15.5974 3.81546 16.5 4.96418 16.5H11.0359C12.1847 16.5 13.1693 15.5974 13.2514 14.4487C13.3334 13.4641 13.4155 12.0692 13.4975 11.0026C13.5795 9.77176 13.4975 7.22816 13.4975 5.42308H2.50263Z" fill="#CA404F"/>
    <path d="M13.7437 2.96154H11.6924L11.036 1.73077C10.6258 0.992312 9.8873 0.5 9.06674 0.5H7.09754C6.27702 0.5 5.45651 0.992312 5.12831 1.73077L4.30779 2.96154H2.25651C1.92831 2.96154 1.6001 3.28974 1.6001 3.61795C1.6001 3.94615 1.92831 4.27436 2.25651 4.27436H13.7437C14.0719 4.27436 14.4001 4.02821 14.4001 3.61795C14.4001 3.2077 14.0719 2.96154 13.7437 2.96154ZM5.70267 2.96154L6.11292 2.30513C6.27702 1.97692 6.60522 1.73077 7.01546 1.73077H8.98474C9.39498 1.73077 9.72314 1.89487 9.8873 2.30513L10.2975 2.96154H5.70267Z" fill="#CA404F"/>
  </symbol>

  <symbol id="circle-plus" viewBox="0 0 16 16" fill="none">
    <rect width="16" height="16" rx="8" fill="#838994"/>
    <g clip-path="url(#clip0_2756_10647)">
    <path d="M7.5 4H8.5V12H7.5V4Z" fill="white"/>
    <path d="M4 8.5V7.5H12V8.5H4Z" fill="white"/>
    </g>
    <defs>
    <clipPath id="clip0_2756_10647">
    <rect width="8" height="8" fill="white" transform="translate(4 4)"/>
    </clipPath>
    </defs>
  </symbol>

  <symbol id="personal-info" viewBox="0 0 20 21" fill="none">
    <path d="M17.0715 3.42878C13.1663 -0.476043 6.83448 -0.476478 2.92878 3.42878C-0.976478 7.33404 -0.976043 13.6658 2.92878 17.5715C6.83404 21.4759 13.1658 21.4764 17.0715 17.5715C20.9764 13.6658 20.9759 7.33448 17.0715 3.42878ZM11.3041 14.848C11.3041 15.5685 10.7202 16.1524 9.99973 16.1524C9.27929 16.1524 8.69537 15.5685 8.69537 14.848V9.63059C8.69537 8.91015 9.27929 8.32623 9.99973 8.32623C10.7202 8.32623 11.3041 8.91015 11.3041 9.63059V14.848ZM9.97668 7.401C9.22537 7.401 8.7245 6.86882 8.74015 6.21186C8.7245 5.52315 9.22537 5.00706 9.9919 5.00706C10.7589 5.00706 11.2441 5.52359 11.2602 6.21186C11.2597 6.86882 10.7593 7.401 9.97668 7.401Z" fill="#838994"/>
  </symbol>

  <symbol id="hunting-license" viewBox="0 0 22 19" fill="none">
    <rect width="20" height="17" transform="translate(1 1)" fill="#F6F8FC"/>
    <rect x="0.5" y="1" width="21" height="17" rx="2" fill="#838994"/>
    <rect x="0.5" y="1" width="21" height="17" rx="2" stroke="#838994"/>
    <path d="M8.04173 6.55814C8.04167 7.01457 7.92188 7.46073 7.6975 7.84022C7.47312 8.2197 7.15423 8.51545 6.78115 8.69007C6.40807 8.8647 5.99755 8.91036 5.60151 8.82128C5.20547 8.7322 4.8417 8.51237 4.55618 8.1896C4.27067 7.86684 4.07624 7.45562 3.99748 7.00795C3.91872 6.56029 3.95917 6.09627 4.11371 5.67459C4.26826 5.25291 4.52995 4.89249 4.8657 4.63892C5.20146 4.38534 5.5962 4.25 6 4.25C6.26814 4.25002 6.53365 4.30974 6.78138 4.42574C7.0291 4.54175 7.25418 4.71177 7.44378 4.9261C7.63337 5.14043 7.78376 5.39487 7.88635 5.6749C7.98895 5.95492 8.04175 6.25505 8.04173 6.55814ZM6 9.54888C5.42182 9.5481 4.84985 9.68356 4.32058 9.94661C3.7913 10.2097 3.31635 10.5945 2.92602 11.0767C2.237 11.9252 2.40576 13.2751 3.27331 13.8792C4.0936 14.4486 5.0374 14.75 6 14.75C6.9626 14.75 7.9064 14.4486 8.72669 13.8792C9.59424 13.2751 9.763 11.9252 9.07398 11.0767C8.68365 10.5945 8.20869 10.2097 7.67942 9.94661C7.15015 9.68356 6.57818 9.5481 6 9.54888Z" fill="#F6F8FC"/>
    <path d="M12.5 7H19.5" stroke="#F6F8FC" stroke-linecap="round"/>
    <path d="M12.5 9.5L19.5 9.5" stroke="#F6F8FC" stroke-linecap="round"/>
    <path d="M12.5 12H19.5" stroke="#F6F8FC" stroke-linecap="round"/>
  </symbol>

  <symbol id="identity-card" viewBox="0 0 20 21" fill="none">
    <path d="M14.3963 4.89645C14.3961 5.76585 14.1382 6.61568 13.6551 7.3385C13.172 8.06132 12.4855 8.62466 11.6822 8.95729C10.879 9.28991 9.99511 9.37688 9.14244 9.2072C8.28976 9.03752 7.50655 8.6188 6.89183 8.00401C6.27712 7.38921 5.85851 6.60594 5.68894 5.75324C5.51938 4.90054 5.60646 4.01671 5.93919 3.21351C6.27192 2.4103 6.83535 1.72379 7.55824 1.2408C8.28112 0.757798 9.13099 0.5 10.0004 0.5C10.5777 0.500038 11.1494 0.613786 11.6827 0.834749C12.2161 1.05571 12.7007 1.37956 13.1089 1.78781C13.517 2.19606 13.8408 2.68071 14.0617 3.21409C14.2826 3.74747 14.3963 4.31914 14.3963 4.89645ZM10.0004 10.5931C8.75557 10.5916 7.5241 10.8496 6.38457 11.3507C5.24504 11.8517 4.22246 12.5848 3.38207 13.5031C1.89859 15.1194 2.26195 17.6906 4.1298 18.8414C5.89589 19.9259 7.92789 20.5 10.0004 20.5C12.0729 20.5 14.1049 19.9259 15.871 18.8414C17.7388 17.6906 18.1022 15.1194 16.6187 13.5031C15.7783 12.5848 14.7557 11.8517 13.6162 11.3507C12.4767 10.8496 11.2452 10.5916 10.0004 10.5931Z" fill="#838994"/>
  </symbol>

  <symbol id="plus" viewBox="0 0 16 16" fill="none" >
    <rect width="16" height="16" rx="8" fill="white"/>
    <g clipPath="url(#clip0_124_7338)">
      <path d="M7.5 4H8.5V12H7.5V4Z" fill="#C3B091"/>
      <path d="M4 8.5V7.5H12V8.5H4Z" fill="#C3B091"/>
    </g>
    <defs>
      <clipPath id="clip0_124_7338">
        <rect width="8" height="8" fill="white" transform="translate(4 4)"/>
      </clipPath>
    </defs>
  </symbol>

  <symbol id="question" viewBox="0 0 16 16" fill="none" >
    <rect width="16" height="16" rx="8" fill="#C9CFDB"/>
    <path d="M7.24169 9.67828V9.60573C7.24678 9.13222 7.29388 8.75545 7.38298 8.47542C7.47462 8.19539 7.60446 7.96881 7.77248 7.7957C7.9405 7.62259 8.14288 7.46476 8.37964 7.3222C8.53238 7.22546 8.66985 7.11726 8.79205 6.99761C8.91424 6.87796 9.01098 6.74049 9.08226 6.5852C9.15354 6.42991 9.18918 6.25807 9.18918 6.06969C9.18918 5.84312 9.13572 5.6471 9.0288 5.48162C8.92188 5.31615 8.77932 5.18886 8.60112 5.09976C8.42546 5.00811 8.22944 4.96229 8.01305 4.96229C7.81703 4.96229 7.62991 5.00302 7.45171 5.08449C7.27351 5.16595 7.12586 5.29324 7.00875 5.46635C6.89165 5.63691 6.82419 5.85712 6.80637 6.12697H5.64551C5.66333 5.66874 5.77916 5.28178 5.993 4.96611C6.20684 4.64789 6.48942 4.40732 6.84073 4.24439C7.19459 4.08146 7.58536 4 8.01305 4C8.48147 4 8.89133 4.08783 9.24264 4.26348C9.59396 4.4366 9.86635 4.67971 10.0598 4.99284C10.2558 5.30342 10.3539 5.66619 10.3539 6.08115C10.3539 6.36627 10.3093 6.62339 10.2202 6.85251C10.1311 7.07908 10.0038 7.28146 9.83835 7.45967C9.67542 7.63787 9.4794 7.7957 9.25028 7.93317C9.03389 8.0681 8.85824 8.20812 8.72331 8.35322C8.59093 8.49833 8.4942 8.67017 8.4331 8.86874C8.372 9.0673 8.3389 9.31297 8.33381 9.60573V9.67828H7.24169ZM7.8183 12C7.60955 12 7.43007 11.9262 7.27988 11.7785C7.12968 11.6283 7.05458 11.4476 7.05458 11.2363C7.05458 11.0275 7.12968 10.8493 7.27988 10.7017C7.43007 10.5515 7.60955 10.4764 7.8183 10.4764C8.02451 10.4764 8.20271 10.5515 8.35291 10.7017C8.50565 10.8493 8.58202 11.0275 8.58202 11.2363C8.58202 11.3763 8.54638 11.5049 8.4751 11.622C8.40637 11.7365 8.31472 11.8282 8.20016 11.8969C8.0856 11.9656 7.95832 12 7.8183 12Z" fill="#F6F8FC"/>
  </symbol>

  <symbol id="calendar" viewBox="0 0 32 28" fill="none">
    <path d="M0 24.3152V3.68485C0 1.64976 1.64976 0 3.68485 0H6.44849H8.29091H28.3151C30.3502 0 32 1.64976 32 3.68485V24.3152C32 26.3502 30.3502 28 28.3151 28H3.68485C1.64976 28 0 26.3502 0 24.3152Z" fill="#C3B091"/>
    <path d="M6.4 13.2001C6.4 13.8628 5.86275 14.4001 5.2 14.4001C4.53726 14.4001 4 13.8628 4 13.2001C4 12.5373 4.53726 12.0001 5.2 12.0001C5.86275 12.0001 6.4 12.5373 6.4 13.2001Z" fill="white"/>
    <path d="M10.8 13.2C10.8 13.8628 10.2627 14.4 9.59999 14.4C8.93725 14.4 8.39999 13.8628 8.39999 13.2C8.39999 12.5373 8.93725 12 9.59999 12C10.2627 12 10.8 12.5373 10.8 13.2Z" fill="white"/>
    <path d="M23.6 13.2C23.6 13.8628 23.0627 14.4 22.4 14.4C21.7373 14.4 21.2 13.8628 21.2 13.2C21.2 12.5373 21.7373 12 22.4 12C23.0627 12 23.6 12.5373 23.6 13.2Z" fill="white"/>
    <path d="M28 13.2C28 13.8628 27.4627 14.4 26.8 14.4C26.1372 14.4 25.6 13.8628 25.6 13.2C25.6 12.5373 26.1372 12 26.8 12C27.4627 12 28 12.5373 28 13.2Z" fill="white"/>
    <path d="M15.2 13.2C15.2 13.8628 14.6627 14.4 14 14.4C13.3373 14.4 12.8 13.8628 12.8 13.2C12.8 12.5373 13.3373 12 14 12C14.6627 12 15.2 12.5373 15.2 13.2Z" fill="white"/>
    <path d="M19.2 13.2C19.2 13.8628 18.6628 14.4 18 14.4C17.3373 14.4 16.8 13.8628 16.8 13.2C16.8 12.5373 17.3373 12 18 12C18.6628 12 19.2 12.5373 19.2 13.2Z" fill="white"/>
    <path d="M6.4 22.0001C6.4 22.6628 5.86275 23.2001 5.2 23.2001C4.53726 23.2001 4 22.6628 4 22.0001C4 21.3373 4.53726 20.8001 5.2 20.8001C5.86275 20.8001 6.4 21.3373 6.4 22.0001Z" fill="white"/>
    <path d="M10.8 22.0001C10.8 22.6628 10.2627 23.2001 9.59999 23.2001C8.93725 23.2001 8.39999 22.6628 8.39999 22.0001C8.39999 21.3373 8.93725 20.8001 9.59999 20.8001C10.2627 20.8001 10.8 21.3373 10.8 22.0001Z" fill="white"/>
    <path d="M15.2 22.0001C15.2 22.6628 14.6627 23.2001 14 23.2001C13.3373 23.2001 12.8 22.6628 12.8 22.0001C12.8 21.3373 13.3373 20.8001 14 20.8001C14.6627 20.8001 15.2 21.3373 15.2 22.0001Z" fill="white"/>
    <path d="M19.2 22.0001C19.2 22.6628 18.6628 23.2001 18 23.2001C17.3373 23.2001 16.8 22.6628 16.8 22.0001C16.8 21.3373 17.3373 20.8001 18 20.8001C18.6628 20.8001 19.2 21.3373 19.2 22.0001Z" fill="white"/>
    <path d="M6.4 17.6C6.4 18.2628 5.86275 18.8 5.2 18.8C4.53726 18.8 4 18.2628 4 17.6C4 16.9373 4.53726 16.4 5.2 16.4C5.86275 16.4 6.4 16.9373 6.4 17.6Z" fill="white"/>
    <path d="M10.8 17.6C10.8 18.2628 10.2627 18.8 9.59999 18.8C8.93725 18.8 8.39999 18.2628 8.39999 17.6C8.39999 16.9373 8.93725 16.4 9.59999 16.4C10.2627 16.4 10.8 16.9373 10.8 17.6Z" fill="white"/>
    <path d="M23.6 17.6C23.6 18.2628 23.0627 18.8 22.4 18.8C21.7373 18.8 21.2 18.2628 21.2 17.6C21.2 16.9373 21.7373 16.4 22.4 16.4C23.0627 16.4 23.6 16.9373 23.6 17.6Z" fill="white"/>
    <path d="M28 17.6C28 18.2628 27.4627 18.8 26.8 18.8C26.1372 18.8 25.6 18.2628 25.6 17.6C25.6 16.9373 26.1372 16.4 26.8 16.4C27.4627 16.4 28 16.9373 28 17.6Z" fill="white"/>
    <path d="M15.2 17.6C15.2 18.2628 14.6627 18.8 14 18.8C13.3373 18.8 12.8 18.2628 12.8 17.6C12.8 16.9373 13.3373 16.4 14 16.4C14.6627 16.4 15.2 16.9373 15.2 17.6Z" fill="white"/>
    <path d="M19.2 17.6C19.2 18.2628 18.6628 18.8 18 18.8C17.3373 18.8 16.8 18.2628 16.8 17.6C16.8 16.9373 17.3373 16.4 18 16.4C18.6628 16.4 19.2 16.9373 19.2 17.6Z" fill="white"/>
    <path d="M6.44849 0C7.13929 0 6.86093 0 7.3697 0C7.87847 0 7.58023 0 8.29091 0V2.2061C8.29091 2.71487 7.87847 3.12731 7.3697 3.12731C6.86093 3.12731 6.44849 2.71487 6.44849 2.2061V0Z" fill="white"/>
    <path d="M0 4.96973H32V6.81216H0V4.96973Z" fill="white"/>
    <path d="M23.0303 0C23.7211 0 23.4427 0 23.9515 0C24.4603 0 24.1621 0 24.8727 0V2.2061C24.8727 2.71487 24.4603 3.12731 23.9515 3.12731C23.4427 3.12731 23.0303 2.71487 23.0303 2.2061V0Z" fill="white"/>
  </symbol>

  <symbol id="burger-mobile" viewBox="0 0 40 40" fill="none" >
    <rect width="40" height="40" rx="16" fill="#F6F8FC"/>
    <rect width="40" height="40" rx="11" fill="#F6F8FC"/>
    <line x1="11.5" y1="12" x2="28.5" y2="12" stroke="#838994" stroke-width="3" stroke-linecap="round"/>
    <line x1="11.5" y1="20" x2="28.5" y2="20" stroke="#838994" stroke-width="3" stroke-linecap="round"/>
    <line x1="11.5" y1="28" x2="28.5" y2="28" stroke="#838994" stroke-width="3" stroke-linecap="round"/>
  </symbol>

  <symbol id="login-mobile" viewBox="0 0 40 40" fill="none">
    <rect width="40" height="40" rx="16" fill="#C3B091"/>
    <path d="M24.3963 14.3965C24.3961 15.2658 24.1382 16.1157 23.6551 16.8385C23.172 17.5613 22.4855 18.1247 21.6822 18.4573C20.879 18.7899 19.9951 18.8769 19.1424 18.7072C18.2898 18.5375 17.5065 18.1188 16.8918 17.504C16.2771 16.8892 15.8585 16.1059 15.6889 15.2532C15.5194 14.4005 15.6065 13.5167 15.9392 12.7135C16.2719 11.9103 16.8354 11.2238 17.5582 10.7408C18.2811 10.2578 19.131 10 20.0004 10C20.5777 10 21.1494 10.1138 21.6827 10.3347C22.2161 10.5557 22.7007 10.8796 23.1089 11.2878C23.517 11.6961 23.8408 12.1807 24.0617 12.7141C24.2826 13.2475 24.3963 13.8191 24.3963 14.3965ZM20.0004 20.0931C18.7556 20.0916 17.5241 20.3496 16.3846 20.8507C15.245 21.3517 14.2225 22.0848 13.3821 23.0031C11.8986 24.6194 12.2619 27.1906 14.1298 28.3414C15.8959 29.4259 17.9279 30 20.0004 30C22.0729 30 24.1049 29.4259 25.871 28.3414C27.7388 27.1906 28.1022 24.6194 26.6187 23.0031C25.7783 22.0848 24.7557 21.3517 23.6162 20.8507C22.4767 20.3496 21.2452 20.0916 20.0004 20.0931Z" fill="white"/>
  </symbol>

  <symbol id="account-mobile" viewBox="0 0 40 40" fill="none">
    <rect width="40" height="40" rx="16" fill="#F6F8FC"/>
    <path d="M24.3963 14.3965C24.3961 15.2658 24.1382 16.1157 23.6551 16.8385C23.172 17.5613 22.4855 18.1247 21.6822 18.4573C20.879 18.7899 19.9951 18.8769 19.1424 18.7072C18.2898 18.5375 17.5065 18.1188 16.8918 17.504C16.2771 16.8892 15.8585 16.1059 15.6889 15.2532C15.5194 14.4005 15.6065 13.5167 15.9392 12.7135C16.2719 11.9103 16.8354 11.2238 17.5582 10.7408C18.2811 10.2578 19.131 10 20.0004 10C20.5777 10 21.1494 10.1138 21.6827 10.3347C22.2161 10.5557 22.7007 10.8796 23.1089 11.2878C23.517 11.6961 23.8408 12.1807 24.0617 12.7141C24.2826 13.2475 24.3963 13.8191 24.3963 14.3965ZM20.0004 20.0931C18.7556 20.0916 17.5241 20.3496 16.3846 20.8507C15.245 21.3517 14.2225 22.0848 13.3821 23.0031C11.8986 24.6194 12.2619 27.1906 14.1298 28.3414C15.8959 29.4259 17.9279 30 20.0004 30C22.0729 30 24.1049 29.4259 25.871 28.3414C27.7388 27.1906 28.1022 24.6194 26.6187 23.0031C25.7783 22.0848 24.7557 21.3517 23.6162 20.8507C22.4767 20.3496 21.2452 20.0916 20.0004 20.0931Z" fill="#838994"/>
  </symbol>

  <symbol id="bell-mobile" viewBox="0 0 40 40" fill="none">
    <rect width="40" height="40" rx="16" fill="#F6F8FC"/>
    <path d="M17.75 10.157C18.25 7.69766 21.25 7.69766 21.75 10.157C26.2889 12.3694 27.1633 14.7924 27.25 20.157C27.5658 24.4929 28.8312 26.0819 31.373 28.3269C31.5025 28.4414 31.4229 28.657 31.25 28.657H30.75H29.75H27.75H23.75C22.25 32.6977 17.25 32.6977 15.75 28.657H12H10.125H9.1875C8.88528 28.657 8.7528 28.2676 8.98385 28.0728C10.9963 26.3759 11.8975 24.6465 12.25 20.157C12.1791 14.7727 13.0364 12.352 17.75 10.157Z" fill="#838994" stroke="#838994"/>
  </symbol>

  <symbol id="filter" viewBox="0 0 13 14" fill="none">
    <path d="M0 2.33333C0 1.32081 0.842414 0.5 1.88158 0.5C2.74285 0.5 3.46896 1.06383 3.69233 1.83333H12.4868C12.7702 1.83333 13 2.05719 13 2.33333C13 2.60947 12.7702 2.83333 12.4868 2.83333H3.69233C3.46896 3.60283 2.74285 4.16667 1.88158 4.16667C0.842414 4.16667 0 3.34585 0 2.33333Z" fill="currentColor"/>
    <path d="M3.69233 12.1667C3.46896 12.9362 2.74285 13.5 1.88158 13.5C0.842414 13.5 0 12.6792 0 11.6667C0 10.6541 0.842414 9.83333 1.88158 9.83333C2.74285 9.83333 3.46896 10.3971 3.69233 11.1667H12.4868C12.7702 11.1667 13 11.3905 13 11.6667C13 11.9428 12.7702 12.1667 12.4868 12.1667H3.69233Z" fill="currentColor"/>
    <path d="M0.342105 7C0.342105 6.72387 0.571856 6.5 0.855263 6.5H5.88661C6.11 5.73047 6.83608 5.16667 7.69737 5.16667C8.55865 5.16667 9.28474 5.73047 9.50813 6.5H12.4868C12.7702 6.5 13 6.72387 13 7C13 7.27613 12.7702 7.5 12.4868 7.5H9.50813C9.28474 8.26953 8.55865 8.83333 7.69737 8.83333C6.83608 8.83333 6.11 8.26953 5.88661 7.5H0.855263C0.571856 7.5 0.342105 7.27613 0.342105 7Z" fill="currentColor"/>
  </symbol>

  <symbol id="edit-mobile" viewBox="0 0 40 40" fill="none">
    <rect width="40" height="40" rx="16" fill="#F6F8FC"/>
    <path d="M20.5946 13.8857L11.0232 23.4704C10.6705 23.8243 10.4476 24.2871 10.3907 24.7838L10.0093 28.1371C9.98444 28.3729 10.0095 28.6113 10.0829 28.8367C10.1563 29.0621 10.2764 29.2695 10.4353 29.4453C10.5942 29.6212 10.7883 29.7614 11.005 29.857C11.2217 29.9526 11.4561 30.0013 11.6929 30H11.8882L15.2368 29.6181C15.7308 29.5608 16.192 29.3414 16.5484 28.994L26.1197 19.3999L20.5946 13.8857Z" fill="#838994"/>
    <path d="M29.3567 13.0753L26.929 10.6442C26.7259 10.44 26.4845 10.278 26.2188 10.1675C25.953 10.0569 25.668 10 25.3802 10C25.0925 10 24.8075 10.0569 24.5417 10.1675C24.276 10.278 24.0346 10.44 23.8315 10.6442L21.5805 12.8983L27.1057 18.4312L29.3567 16.1771C29.5606 15.9737 29.7224 15.732 29.8328 15.4659C29.9432 15.1997 30 14.9144 30 14.6262C30 14.338 29.9432 14.0527 29.8328 13.7865C29.7224 13.5204 29.5606 13.2787 29.3567 13.0753Z" fill="#838994"/>
  </symbol>

  <symbol id="busket-mobile" viewBox="0 0 48 40" fill="none">
    <rect x="0.5" width="47.5" height="40" rx="16" fill="#F6F8FC"/>
    <path d="M12.5 11H16L16.7 13.5M16.7 13.5L19.5 23.5H33.5L36 13.5H16.7Z" stroke="#838994" stroke-width="2" stroke-linecap="round" stroke-linejoin="round"/>
    <circle cx="19.5" cy="27" r="2" fill="#838994"/>
    <circle cx="33.5" cy="27" r="2" fill="#838994"/>
  </symbol>

  <symbol id="plus-mobile" viewBox="0 0 41 40" fill="none">
    <rect x="0.5" width="40" height="40" rx="16" fill="#F3EFE9"/>
    <rect x="12.5" y="12" width="16" height="16" rx="8" fill="#C3B091"/>
    <g clip-path="url(#clip0_3762_16479)">
      <path d="M20 16H21V24H20V16Z" fill="white"/>
      <path d="M16.5 20.5V19.5H24.5V20.5H16.5Z" fill="white"/>
    </g>
    <defs>
      <clipPath id="clip0_3762_16479">
        <rect width="8" height="8" fill="white" transform="translate(16.5 16)"/>
      </clipPath>
    </defs>
  </symbol>

</svg>
