<svg width="16" height="21" viewBox="0 0 16 21" fill="none" xmlns="http://www.w3.org/2000/svg">
<path d="M12.3958 4.89645C12.3956 5.76585 12.1377 6.61568 11.6546 7.3385C11.1715 8.06132 10.485 8.62466 9.68172 8.95729C8.87847 9.28991 7.99463 9.37688 7.14195 9.2072C6.28927 9.03752 5.50606 8.6188 4.89135 8.00401C4.27663 7.38921 3.85802 6.60594 3.68846 5.75324C3.51889 4.90054 3.60597 4.01671 3.9387 3.21351C4.27143 2.4103 4.83486 1.72379 5.55775 1.2408C6.28063 0.757798 7.1305 0.5 7.9999 0.5C8.57721 0.500038 9.14886 0.613786 9.68221 0.834749C10.2156 1.05571 10.7002 1.37956 11.1084 1.78781C11.5166 2.19606 11.8403 2.68071 12.0612 3.21409C12.2821 3.74747 12.3958 4.31914 12.3958 4.89645ZM7.9999 10.5931C6.75508 10.5916 5.52362 10.8496 4.38408 11.3507C3.24455 11.8517 2.22197 12.5848 1.38158 13.5031C-0.101897 15.1194 0.261458 17.6906 2.12931 18.8414C3.89541 19.9259 5.9274 20.5 7.9999 20.5C10.0724 20.5 12.1044 19.9259 13.8705 18.8414C15.7383 17.6906 16.1017 15.1194 14.6182 13.5031C13.7778 12.5848 12.7552 11.8517 11.6157 11.3507C10.4762 10.8496 9.24472 10.5916 7.9999 10.5931Z" fill="#838994"/>
</svg>
