<svg width="40" height="41" viewBox="0 0 40 41" fill="none" xmlns="http://www.w3.org/2000/svg">
<rect y="0.5" width="40" height="40" rx="20" fill="#F3EFE9"/>
<path d="M11.344 20.9238C10.596 23.9404 10.9885 25.6856 13.3113 28.6138C13.4952 28.8457 13.7368 29.0273 14.0108 29.1347C15.4718 29.7076 16.1923 29.7129 16.8754 28.3737C17.1161 27.9018 17.0777 27.3287 16.7435 26.9194C16.401 26.4999 15.9574 26.0778 15.4447 25.6343C14.8596 25.1282 14.2778 24.5716 14.0491 23.8277C13.7374 22.8141 13.8318 21.6372 14.2546 19.7561C14.4378 18.9405 14.7291 18.154 15.0882 17.4006C15.5917 16.3439 16.0453 15.248 16.7044 14.283C17.281 13.4387 17.9549 12.5451 18.0966 12.1811C18.1705 11.9913 18.1974 11.8305 18.1998 11.6995C18.204 11.47 17.9569 11.4361 17.8092 11.6103C17.6839 11.758 17.5661 11.8984 17.4549 12.0335C16.2179 13.5359 15.0874 15.1422 13.8065 16.6064C12.6427 17.9367 11.9093 19.1418 11.344 20.9238Z" fill="#C3B091"/>
<path d="M28.656 20.9238C29.404 23.9404 29.0115 25.6856 26.6887 28.6138C26.5048 28.8457 26.2632 29.0273 25.9892 29.1347C24.5282 29.7076 23.8077 29.7129 23.1246 28.3737C22.8839 27.9018 22.9223 27.3287 23.2565 26.9194C23.599 26.4999 24.0426 26.0778 24.5553 25.6343C25.1404 25.1282 25.7222 24.5716 25.9509 23.8277C26.2626 22.8141 26.1682 21.6372 25.7454 19.7561C25.5622 18.9405 25.2709 18.154 24.9118 17.4006C24.4083 16.3439 23.9547 15.248 23.2956 14.283C22.719 13.4387 22.0451 12.5451 21.9034 12.1811C21.8295 11.9913 21.8026 11.8305 21.8002 11.6995C21.796 11.47 22.0431 11.4361 22.1908 11.6103C22.3161 11.758 22.4339 11.8984 22.5451 12.0335C23.7821 13.5359 24.9126 15.1422 26.1934 16.6064C27.3573 17.9367 28.0907 19.1418 28.656 20.9238Z" fill="#C3B091"/>
<path d="M11.344 20.9238C10.596 23.9404 10.9885 25.6856 13.3113 28.6138C13.4952 28.8457 13.7368 29.0273 14.0108 29.1347C15.4718 29.7076 16.1923 29.7129 16.8754 28.3737C17.1161 27.9018 17.0777 27.3287 16.7435 26.9194C16.401 26.4999 15.9574 26.0778 15.4447 25.6343C14.8596 25.1282 14.2778 24.5716 14.0491 23.8277C13.7374 22.8141 13.8318 21.6372 14.2546 19.7561C14.4378 18.9405 14.7291 18.154 15.0882 17.4006C15.5917 16.3439 16.0453 15.248 16.7044 14.283C17.281 13.4387 17.9549 12.5451 18.0966 12.1811C18.1705 11.9913 18.1974 11.8305 18.1998 11.6995C18.204 11.47 17.9569 11.4361 17.8092 11.6103C17.6839 11.758 17.5661 11.8984 17.4549 12.0335C16.2179 13.5359 15.0874 15.1422 13.8065 16.6064C12.6427 17.9367 11.9093 19.1418 11.344 20.9238Z" stroke="#C3B091"/>
<path d="M28.656 20.9238C29.404 23.9404 29.0115 25.6856 26.6887 28.6138C26.5048 28.8457 26.2632 29.0273 25.9892 29.1347C24.5282 29.7076 23.8077 29.7129 23.1246 28.3737C22.8839 27.9018 22.9223 27.3287 23.2565 26.9194C23.599 26.4999 24.0426 26.0778 24.5553 25.6343C25.1404 25.1282 25.7222 24.5716 25.9509 23.8277C26.2626 22.8141 26.1682 21.6372 25.7454 19.7561C25.5622 18.9405 25.2709 18.154 24.9118 17.4006C24.4083 16.3439 23.9547 15.248 23.2956 14.283C22.719 13.4387 22.0451 12.5451 21.9034 12.1811C21.8295 11.9913 21.8026 11.8305 21.8002 11.6995C21.796 11.47 22.0431 11.4361 22.1908 11.6103C22.3161 11.758 22.4339 11.8984 22.5451 12.0335C23.7821 13.5359 24.9126 15.1422 26.1934 16.6064C27.3573 17.9367 28.0907 19.1418 28.656 20.9238Z" stroke="#C3B091"/>
</svg>
