<svg width="20" height="21" viewBox="0 0 20 21" fill="none" xmlns="http://www.w3.org/2000/svg">
<path d="M0 15.0455H5.45455V20.5H2.72727C2.00396 20.5 1.31026 20.2127 0.7988 19.7012C0.287337 19.1897 0 18.496 0 17.7727V15.0455ZM7.27273 20.5H17.2727C17.996 20.5 18.6897 20.2127 19.2012 19.7012C19.7127 19.1897 20 18.496 20 17.7727V15.0455H7.27273V20.5ZM7.27273 13.2273H20V7.77273H7.27273V13.2273ZM0 3.22727V5.95455H5.45455V0.5H2.72727C2.00396 0.5 1.31026 0.787337 0.7988 1.2988C0.287337 1.81026 0 2.50396 0 3.22727ZM0 13.2273H5.45455V7.77273H0V13.2273ZM17.2727 0.5H7.27273V5.95455H20V3.22727C20 2.50396 19.7127 1.81026 19.2012 1.2988C18.6897 0.787337 17.996 0.5 17.2727 0.5Z" fill="#838994"/>
</svg>
