<svg width="18" height="18" viewBox="0 0 18 18" fill="none" xmlns="http://www.w3.org/2000/svg">
<path d="M9 3.66602C5.57941 3.66602 2.6002 5.81441 1 8.99941C2.6002 12.185 5.57941 14.3328 9 14.3328C12.4206 14.3328 15.3998 12.185 17 8.99941C15.3998 5.81441 12.4206 3.66602 9 3.66602ZM9 12.3328C7.15879 12.3328 5.6666 10.8406 5.6666 8.99941C5.6666 7.1582 7.15879 5.66602 9 5.66602C10.8412 5.66602 12.3334 7.1582 12.3334 8.99941C12.3334 10.8406 10.8412 12.3328 9 12.3328Z" fill="white"/>
<path d="M9 10.9994C10.1046 10.9994 11 10.104 11 8.99941C11 7.89484 10.1046 6.99941 9 6.99941C7.89543 6.99941 7 7.89484 7 8.99941C7 10.104 7.89543 10.9994 9 10.9994Z" fill="white"/>
</svg>
